<svg version="1.2" xmlns="http://www.w3.org/2000/svg" viewBox="0 0 1585 1093" width="1585" height="1093">
	<title>gobierno-decentralizado-svg</title>
	<defs>
		<clipPath clipPathUnits="userSpaceOnUse" id="cp1">
			<path d="m1986.51-499v2021.17h-2858.51v-2021.17z"/>
		</clipPath>
		<clipPath clipPathUnits="userSpaceOnUse" id="cp2">
			<path d="m1986.51-499v2021.17h-2858.51v-2021.17z"/>
		</clipPath>
		<clipPath clipPathUnits="userSpaceOnUse" id="cp3">
			<path d="m1986.51-499v2021.17h-2858.51v-2021.17z"/>
		</clipPath>
		<clipPath clipPathUnits="userSpaceOnUse" id="cp4">
			<path d="m1986.51-499v2021.17h-2858.51v-2021.17z"/>
		</clipPath>
		<clipPath clipPathUnits="userSpaceOnUse" id="cp5">
			<path d="m1986.51-499v2021.17h-2858.51v-2021.17z"/>
		</clipPath>
		<clipPath clipPathUnits="userSpaceOnUse" id="cp6">
			<path d="m1986.51-499v2021.17h-2858.51v-2021.17z"/>
		</clipPath>
		<clipPath clipPathUnits="userSpaceOnUse" id="cp7">
			<path d="m1986.51-499v2021.17h-2858.51v-2021.17z"/>
		</clipPath>
		<clipPath clipPathUnits="userSpaceOnUse" id="cp8">
			<path d="m1986.51-499v2021.17h-2858.51v-2021.17z"/>
		</clipPath>
		<clipPath clipPathUnits="userSpaceOnUse" id="cp9">
			<path d="m1986.51-499v2021.17h-2858.51v-2021.17z"/>
		</clipPath>
		<clipPath clipPathUnits="userSpaceOnUse" id="cp10">
			<path d="m1986.51-499v2021.17h-2858.51v-2021.17z"/>
		</clipPath>
		<clipPath clipPathUnits="userSpaceOnUse" id="cp11">
			<path d="m1986.51-499v2021.17h-2858.51v-2021.17z"/>
		</clipPath>
		<clipPath clipPathUnits="userSpaceOnUse" id="cp12">
			<path d="m1986.51-499v2021.17h-2858.51v-2021.17z"/>
		</clipPath>
		<clipPath clipPathUnits="userSpaceOnUse" id="cp13">
			<path d="m1986.51-499v2021.17h-2858.51v-2021.17z"/>
		</clipPath>
		<clipPath clipPathUnits="userSpaceOnUse" id="cp14">
			<path d="m1986.51-499v2021.17h-2858.51v-2021.17z"/>
		</clipPath>
		<clipPath clipPathUnits="userSpaceOnUse" id="cp15">
			<path d="m1986.51-499v2021.17h-2858.51v-2021.17z"/>
		</clipPath>
		<clipPath clipPathUnits="userSpaceOnUse" id="cp16">
			<path d="m1986.51-499v2021.17h-2858.51v-2021.17z"/>
		</clipPath>
		<clipPath clipPathUnits="userSpaceOnUse" id="cp17">
			<path d="m1986.51-499v2021.17h-2858.51v-2021.17z"/>
		</clipPath>
		<clipPath clipPathUnits="userSpaceOnUse" id="cp18">
			<path d="m1986.51-499v2021.17h-2858.51v-2021.17z"/>
		</clipPath>
		<clipPath clipPathUnits="userSpaceOnUse" id="cp19">
			<path d="m1986.51-499v2021.17h-2858.51v-2021.17z"/>
		</clipPath>
		<clipPath clipPathUnits="userSpaceOnUse" id="cp20">
			<path d="m1986.51-499v2021.17h-2858.51v-2021.17z"/>
		</clipPath>
		<clipPath clipPathUnits="userSpaceOnUse" id="cp21">
			<path d="m1986.51-499v2021.17h-2858.51v-2021.17z"/>
		</clipPath>
		<clipPath clipPathUnits="userSpaceOnUse" id="cp22">
			<path d="m1986.51-499v2021.17h-2858.51v-2021.17z"/>
		</clipPath>
		<clipPath clipPathUnits="userSpaceOnUse" id="cp23">
			<path d="m1986.51-499v2021.17h-2858.51v-2021.17z"/>
		</clipPath>
		<clipPath clipPathUnits="userSpaceOnUse" id="cp24">
			<path d="m1986.51-499v2021.17h-2858.51v-2021.17z"/>
		</clipPath>
		<clipPath clipPathUnits="userSpaceOnUse" id="cp25">
			<path d="m1986.51-499v2021.17h-2858.51v-2021.17z"/>
		</clipPath>
		<clipPath clipPathUnits="userSpaceOnUse" id="cp26">
			<path d="m1986.51-499v2021.17h-2858.51v-2021.17z"/>
		</clipPath>
		<clipPath clipPathUnits="userSpaceOnUse" id="cp27">
			<path d="m1986.51-499v2021.17h-2858.51v-2021.17z"/>
		</clipPath>
		<clipPath clipPathUnits="userSpaceOnUse" id="cp28">
			<path d="m1986.51-499v2021.17h-2858.51v-2021.17z"/>
		</clipPath>
		<clipPath clipPathUnits="userSpaceOnUse" id="cp29">
			<path d="m1986.51-499v2021.17h-2858.51v-2021.17z"/>
		</clipPath>
		<clipPath clipPathUnits="userSpaceOnUse" id="cp30">
			<path d="m1986.51-499v2021.17h-2858.51v-2021.17z"/>
		</clipPath>
		<clipPath clipPathUnits="userSpaceOnUse" id="cp31">
			<path d="m1986.51-499v2021.17h-2858.51v-2021.17z"/>
		</clipPath>
		<clipPath clipPathUnits="userSpaceOnUse" id="cp32">
			<path d="m1986.51-499v2021.17h-2858.51v-2021.17z"/>
		</clipPath>
		<clipPath clipPathUnits="userSpaceOnUse" id="cp33">
			<path d="m1986.51-499v2021.17h-2858.51v-2021.17z"/>
		</clipPath>
		<clipPath clipPathUnits="userSpaceOnUse" id="cp34">
			<path d="m1986.51-499v2021.17h-2858.51v-2021.17z"/>
		</clipPath>
		<clipPath clipPathUnits="userSpaceOnUse" id="cp35">
			<path d="m1986.51-499v2021.17h-2858.51v-2021.17z"/>
		</clipPath>
		<clipPath clipPathUnits="userSpaceOnUse" id="cp36">
			<path d="m1986.51-499v2021.17h-2858.51v-2021.17z"/>
		</clipPath>
		<clipPath clipPathUnits="userSpaceOnUse" id="cp37">
			<path d="m1986.51-499v2021.17h-2858.51v-2021.17z"/>
		</clipPath>
		<clipPath clipPathUnits="userSpaceOnUse" id="cp38">
			<path d="m1986.51-499v2021.17h-2858.51v-2021.17z"/>
		</clipPath>
		<clipPath clipPathUnits="userSpaceOnUse" id="cp39">
			<path d="m1986.51-499v2021.17h-2858.51v-2021.17z"/>
		</clipPath>
		<clipPath clipPathUnits="userSpaceOnUse" id="cp40">
			<path d="m1986.51-499v2021.17h-2858.51v-2021.17z"/>
		</clipPath>
		<clipPath clipPathUnits="userSpaceOnUse" id="cp41">
			<path d="m1986.51-499v2021.17h-2858.51v-2021.17z"/>
		</clipPath>
		<clipPath clipPathUnits="userSpaceOnUse" id="cp42">
			<path d="m1986.51-499v2021.17h-2858.51v-2021.17z"/>
		</clipPath>
		<clipPath clipPathUnits="userSpaceOnUse" id="cp43">
			<path d="m1986.51-499v2021.17h-2858.51v-2021.17z"/>
		</clipPath>
		<clipPath clipPathUnits="userSpaceOnUse" id="cp44">
			<path d="m1986.51-499v2021.17h-2858.51v-2021.17z"/>
		</clipPath>
		<clipPath clipPathUnits="userSpaceOnUse" id="cp45">
			<path d="m1986.51-499v2021.17h-2858.51v-2021.17z"/>
		</clipPath>
		<clipPath clipPathUnits="userSpaceOnUse" id="cp46">
			<path d="m1986.51-499v2021.17h-2858.51v-2021.17z"/>
		</clipPath>
		<clipPath clipPathUnits="userSpaceOnUse" id="cp47">
			<path d="m1986.51-499v2021.17h-2858.51v-2021.17z"/>
		</clipPath>
		<clipPath clipPathUnits="userSpaceOnUse" id="cp48">
			<path d="m1986.51-499v2021.17h-2858.51v-2021.17z"/>
		</clipPath>
		<clipPath clipPathUnits="userSpaceOnUse" id="cp49">
			<path d="m1986.51-499v2021.17h-2858.51v-2021.17z"/>
		</clipPath>
		<clipPath clipPathUnits="userSpaceOnUse" id="cp50">
			<path d="m1986.51-499v2021.17h-2858.51v-2021.17z"/>
		</clipPath>
		<clipPath clipPathUnits="userSpaceOnUse" id="cp51">
			<path d="m1986.51-499v2021.17h-2858.51v-2021.17z"/>
		</clipPath>
		<clipPath clipPathUnits="userSpaceOnUse" id="cp52">
			<path d="m1986.51-499v2021.17h-2858.51v-2021.17z"/>
		</clipPath>
		<clipPath clipPathUnits="userSpaceOnUse" id="cp53">
			<path d="m1986.51-499v2021.17h-2858.51v-2021.17z"/>
		</clipPath>
		<clipPath clipPathUnits="userSpaceOnUse" id="cp54">
			<path d="m1986.51-499v2021.17h-2858.51v-2021.17z"/>
		</clipPath>
		<clipPath clipPathUnits="userSpaceOnUse" id="cp55">
			<path d="m1986.51-499v2021.17h-2858.51v-2021.17z"/>
		</clipPath>
		<clipPath clipPathUnits="userSpaceOnUse" id="cp56">
			<path d="m1986.51-499v2021.17h-2858.51v-2021.17z"/>
		</clipPath>
		<clipPath clipPathUnits="userSpaceOnUse" id="cp57">
			<path d="m1986.51-499v2021.17h-2858.51v-2021.17z"/>
		</clipPath>
		<clipPath clipPathUnits="userSpaceOnUse" id="cp58">
			<path d="m1986.51-499v2021.17h-2858.51v-2021.17z"/>
		</clipPath>
		<clipPath clipPathUnits="userSpaceOnUse" id="cp59">
			<path d="m1986.51-499v2021.17h-2858.51v-2021.17z"/>
		</clipPath>
		<clipPath clipPathUnits="userSpaceOnUse" id="cp60">
			<path d="m1986.51-499v2021.17h-2858.51v-2021.17z"/>
		</clipPath>
		<clipPath clipPathUnits="userSpaceOnUse" id="cp61">
			<path d="m1986.51-499v2021.17h-2858.51v-2021.17z"/>
		</clipPath>
		<clipPath clipPathUnits="userSpaceOnUse" id="cp62">
			<path d="m1986.51-499v2021.17h-2858.51v-2021.17z"/>
		</clipPath>
		<clipPath clipPathUnits="userSpaceOnUse" id="cp63">
			<path d="m1986.51-499v2021.17h-2858.51v-2021.17z"/>
		</clipPath>
		<clipPath clipPathUnits="userSpaceOnUse" id="cp64">
			<path d="m1986.51-499v2021.17h-2858.51v-2021.17z"/>
		</clipPath>
		<clipPath clipPathUnits="userSpaceOnUse" id="cp65">
			<path d="m1986.51-499v2021.17h-2858.51v-2021.17z"/>
		</clipPath>
		<clipPath clipPathUnits="userSpaceOnUse" id="cp66">
			<path d="m1986.51-499v2021.17h-2858.51v-2021.17z"/>
		</clipPath>
		<clipPath clipPathUnits="userSpaceOnUse" id="cp67">
			<path d="m1986.51-499v2021.17h-2858.51v-2021.17z"/>
		</clipPath>
		<clipPath clipPathUnits="userSpaceOnUse" id="cp68">
			<path d="m1986.51-499v2021.17h-2858.51v-2021.17z"/>
		</clipPath>
		<clipPath clipPathUnits="userSpaceOnUse" id="cp69">
			<path d="m1986.51-499v2021.17h-2858.51v-2021.17z"/>
		</clipPath>
		<clipPath clipPathUnits="userSpaceOnUse" id="cp70">
			<path d="m1986.51-499v2021.17h-2858.51v-2021.17z"/>
		</clipPath>
		<clipPath clipPathUnits="userSpaceOnUse" id="cp71">
			<path d="m1986.51-499v2021.17h-2858.51v-2021.17z"/>
		</clipPath>
		<clipPath clipPathUnits="userSpaceOnUse" id="cp72">
			<path d="m1986.51-499v2021.17h-2858.51v-2021.17z"/>
		</clipPath>
		<clipPath clipPathUnits="userSpaceOnUse" id="cp73">
			<path d="m1986.51-499v2021.17h-2858.51v-2021.17z"/>
		</clipPath>
		<clipPath clipPathUnits="userSpaceOnUse" id="cp74">
			<path d="m1986.51-499v2021.17h-2858.51v-2021.17z"/>
		</clipPath>
		<clipPath clipPathUnits="userSpaceOnUse" id="cp75">
			<path d="m1986.51-499v2021.17h-2858.51v-2021.17z"/>
		</clipPath>
		<clipPath clipPathUnits="userSpaceOnUse" id="cp76">
			<path d="m1986.51-499v2021.17h-2858.51v-2021.17z"/>
		</clipPath>
		<clipPath clipPathUnits="userSpaceOnUse" id="cp77">
			<path d="m1986.51-499v2021.17h-2858.51v-2021.17z"/>
		</clipPath>
		<clipPath clipPathUnits="userSpaceOnUse" id="cp78">
			<path d="m1986.51-499v2021.17h-2858.51v-2021.17z"/>
		</clipPath>
		<clipPath clipPathUnits="userSpaceOnUse" id="cp79">
			<path d="m1986.51-499v2021.17h-2858.51v-2021.17z"/>
		</clipPath>
		<clipPath clipPathUnits="userSpaceOnUse" id="cp80">
			<path d="m1986.51-499v2021.17h-2858.51v-2021.17z"/>
		</clipPath>
		<clipPath clipPathUnits="userSpaceOnUse" id="cp81">
			<path d="m1986.51-499v2021.17h-2858.51v-2021.17z"/>
		</clipPath>
		<clipPath clipPathUnits="userSpaceOnUse" id="cp82">
			<path d="m1986.51-499v2021.17h-2858.51v-2021.17z"/>
		</clipPath>
		<clipPath clipPathUnits="userSpaceOnUse" id="cp83">
			<path d="m1986.51-499v2021.17h-2858.51v-2021.17z"/>
		</clipPath>
		<clipPath clipPathUnits="userSpaceOnUse" id="cp84">
			<path d="m1986.51-499v2021.17h-2858.51v-2021.17z"/>
		</clipPath>
		<clipPath clipPathUnits="userSpaceOnUse" id="cp85">
			<path d="m1986.51-499v2021.17h-2858.51v-2021.17z"/>
		</clipPath>
		<clipPath clipPathUnits="userSpaceOnUse" id="cp86">
			<path d="m1986.51-499v2021.17h-2858.51v-2021.17z"/>
		</clipPath>
		<clipPath clipPathUnits="userSpaceOnUse" id="cp87">
			<path d="m1986.51-499v2021.17h-2858.51v-2021.17z"/>
		</clipPath>
		<clipPath clipPathUnits="userSpaceOnUse" id="cp88">
			<path d="m1986.51-499v2021.17h-2858.51v-2021.17z"/>
		</clipPath>
		<clipPath clipPathUnits="userSpaceOnUse" id="cp89">
			<path d="m1986.51-499v2021.17h-2858.51v-2021.17z"/>
		</clipPath>
		<clipPath clipPathUnits="userSpaceOnUse" id="cp90">
			<path d="m1986.51-499v2021.17h-2858.51v-2021.17z"/>
		</clipPath>
		<clipPath clipPathUnits="userSpaceOnUse" id="cp91">
			<path d="m1986.51-499v2021.17h-2858.51v-2021.17z"/>
		</clipPath>
		<clipPath clipPathUnits="userSpaceOnUse" id="cp92">
			<path d="m1986.51-499v2021.17h-2858.51v-2021.17z"/>
		</clipPath>
		<clipPath clipPathUnits="userSpaceOnUse" id="cp93">
			<path d="m1986.51-499v2021.17h-2858.51v-2021.17z"/>
		</clipPath>
		<clipPath clipPathUnits="userSpaceOnUse" id="cp94">
			<path d="m1986.51-499v2021.17h-2858.51v-2021.17z"/>
		</clipPath>
		<clipPath clipPathUnits="userSpaceOnUse" id="cp95">
			<path d="m1986.51-499v2021.17h-2858.51v-2021.17z"/>
		</clipPath>
		<clipPath clipPathUnits="userSpaceOnUse" id="cp96">
			<path d="m1986.51-499v2021.17h-2858.51v-2021.17z"/>
		</clipPath>
	</defs>
	<style>
		.s0 { fill: #ffffff } 
		.s1 { fill: none;stroke: #ffffff;stroke-miterlimit:10;stroke-width: .4 } 
		.s2 { fill: none;stroke: #ffffff;stroke-linejoin: bevel;stroke-width: .4 } 
		.s3 { fill: #ffffff;stroke: #d3d2d2;stroke-linejoin: bevel;stroke-width: .4 } 
	</style>
	<g id="LOGO">
		<g id="Clip-Path: Clip-Path: path5856" clip-path="url(#cp1)">
			<g id="Clip-Path: path5856">
				<path id="path5856" fill-rule="evenodd" class="s0" d="m977 484.4c0 32.2-24.4 56.6-55.3 56.6h-97.7c-10.3 0-19.3 5.1-23.1 14.1 0 0 0 1.3-1.3 1.3-1.3 0-1.3-1.3-1.3-1.3-5.2-9-14.2-14.1-23.2-14.1h-97.7c-30.8 0-56.5-24.4-56.5-56.6v-316.3h356.1zm-2.6-315h-349.7v315c0 28.3 23.2 51.5 51.5 52.8h98.9c10.3 0 19.3 5.1 24.5 12.8 5.1-7.7 14.1-12.8 24.4-12.8h97.7c28.3-1.3 51.4-24.5 52.7-52.8z"/>
			</g>
		</g>
		<g id="Clip-Path: Clip-Path: path5858" clip-path="url(#cp2)">
			<g id="Clip-Path: path5858">
				<path id="path5858" fill-rule="evenodd" class="s0" d="m923 222.1v246.9c0 3.9-2.6 9-5.1 12.9-3.9 2.5-9 5.1-12.9 5.1h-88.7c-6.4 0-12.9 3.9-15.4 9 0 0 0 1.3-1.3 1.3-1.3 0-1.3-1.3-1.3-1.3-3.9-5.1-9-9-15.4-9h-88.8c-5.1 0-10.2-2.6-12.8-5.1-3.9-3.9-5.1-9-5.1-12.9v-246.9zm-122.2 3.9v127.3h39.9l-1.3 2.6h-39.9v133.7c3.9-3.9 9-6.5 15.5-6.5h88.7c7.7 0 14.1-6.4 14.1-15.4v-111.8h-46.3l-2.5-2.6h50.1v-127.3zm-69.4 167.1c-7.7-5.1-24.5-15.4-27-15.4-5.2 0-25.7 18-25.7 18v23.2h41.1c0 0 5.1 3.8 15.4 3.8 11.6 0 12.9-3.8 12.9-3.8h48.8v-15.5c0 0-30.8-23.1-34.7-23.1-2.5 0-19.3 10.3-24.4 14.1v-2.5c5.1-3.9 20.6-15.5 24.4-15.5 5.2 0 34.7 24.5 34.7 24.5v-176.2h-118.2v168.4c0 0 19.2-18 25.7-18 3.8 0 20.5 10.3 28.3 15.5zm-9 28.3h-45v47.5q0 5.2 5.1 10.3 3.9 3.9 10.3 3.9h88.7c5.1 0 11.6 2.5 15.4 7.7v-69.4h-50.1c0 0-6.4 2.5-12.9 2.5-5.1 0-11.5-2.5-11.5-2.5z"/>
			</g>
		</g>
		<g id="Clip-Path: Clip-Path: path5860" clip-path="url(#cp3)">
			<g id="Clip-Path: path5860">
				<path id="path5860" fill-rule="evenodd" class="s0" d="m821.4 191.3l-12.8 10.3 5.1 16.7-14.1-9-14.2 9 3.9-16.7-12.9-10.3h16.7l6.5-16.7 5.1 16.7zm-15.4 9l9-7.7h-11.6l-3.8-10.3-3.9 10.3h-11.6l9 7.7-3.8 11.6 10.3-6.5 9 6.5z"/>
			</g>
		</g>
		<g id="Clip-Path: Clip-Path: path5862" clip-path="url(#cp4)">
			<g id="Clip-Path: path5862">
				<path id="path5862" fill-rule="evenodd" class="s0" d="m655.6 271h16.7l-14.1 11.6 5.1 15.4-14.1-9-14.2 9 5.2-15.4-14.2-11.6h16.7l6.5-15.4zm10.2 2.5h-11.5l-5.2-11.5-3.8 11.5h-11.6l9 7.8-2.6 10.2 9-6.4 10.3 6.4-2.6-10.2z"/>
			</g>
		</g>
		<g id="Clip-Path: Clip-Path: path5864" clip-path="url(#cp5)">
			<g id="Clip-Path: path5864">
				<path id="path5864" fill-rule="evenodd" class="s0" d="m938.4 282.6l-12.8-11.6h16.7l5.1-15.4 6.5 15.4h16.7l-12.9 11.6 3.9 15.4-14.2-9-14.1 9zm3.8-1.3l-3.8 11.6 10.3-6.4 9 6.4-2.6-11.6 9-6.4-11.6-1.3-3.8-10.3-3.9 10.3-11.6 1.3z"/>
			</g>
		</g>
		<g id="Clip-Path: Clip-Path: path5866" clip-path="url(#cp6)">
			<g id="Clip-Path: path5866">
				<path id="path5866" fill-rule="evenodd" class="s0" d="m672.3 420.1l-14.1 10.3 5.1 15.5-14.1-9-14.2 9 5.2-15.5-14.2-10.3 16.7-1.2 6.5-15.5 6.4 15.5zm-16.7 9l9-6.5-11.6-1.3-3.9-10.2-3.8 10.2-11.6 1.3 9 6.5-3.8 11.5 10.2-6.4 9 6.4z"/>
			</g>
		</g>
		<g id="Clip-Path: Clip-Path: path5868" clip-path="url(#cp7)">
			<g id="Clip-Path: path5868">
				<path id="path5868" fill-rule="evenodd" class="s0" d="m970.6 420.1l-12.9 10.3 3.9 15.5-14.2-9-14.1 9 5.1-15.5-12.8-10.3 16.7-1.2 5.1-15.5 6.5 15.5zm-16.8 9l9-6.5-11.5-1.3-3.9-10.2-3.8 10.2-11.6 1.3 9 6.5-2.6 11.5 9-6.4 10.3 6.4z"/>
			</g>
		</g>
		<g id="Clip-Path: Clip-Path: path5870" clip-path="url(#cp8)">
			<g id="Clip-Path: path5870">
				<path id="path5870" fill-rule="evenodd" class="s0" d="m754.6 507.6l-12.9 10.3 3.9 16.7-14.2-10.3-12.8 10.3 3.8-16.7-12.8-10.3 16.7-1.3 5.1-15.4 6.5 15.4zm-16.8 10.3l9-7.7h-11.5l-3.9-11.6-3.8 11.6h-11.6l9 7.7-2.6 11.5 9-7.7 10.3 7.7z"/>
			</g>
		</g>
		<g id="Clip-Path: Clip-Path: path5872" clip-path="url(#cp9)">
			<g id="Clip-Path: path5872">
				<path id="path5872" fill-rule="evenodd" class="s0" d="m887 507.6l-14.1 10.3 5.1 16.7-14.1-10.3-14.2 10.3 5.2-16.7-12.9-10.3 16.7-1.3 5.2-15.4 6.4 15.4zm-16.7 10.3l9-7.7h-11.6l-3.9-11.6-3.8 11.6h-11.6l9 7.7-2.6 11.5 9-7.7 10.3 7.7z"/>
			</g>
		</g>
		<g id="Clip-Path: Clip-Path: path5874" clip-path="url(#cp10)">
			<g id="Clip-Path: path5874">
				<path id="path5874" fill-rule="evenodd" class="s0" d="m782.9 449.7c0 6.4-2.6 12.9-5.2 12.9-3.8 0-5.1-6.5-5.1-12.9 0-6.4 1.3-12.8 5.1-12.8 2.6 0 5.2 6.4 5.2 12.8zm-2.6 0c0-6.4-2.6-10.3-2.6-10.3-1.3 0-2.6 3.9-2.6 10.3 0 6.4 1.3 10.3 2.6 10.3 0 0 2.6-3.9 2.6-10.3z"/>
			</g>
		</g>
		<g id="Clip-Path: Clip-Path: path5876" clip-path="url(#cp11)">
			<g id="Clip-Path: path5876">
				<path id="path5876" fill-rule="evenodd" class="s0" d="m788 449.7c0 10.3-5.1 18-10.3 18-3.8 0-7.7-3.8-9-9-2.6-1.3-3.8-2.6-5.1-5.1h-48.9v2.5h-1.3c-1.3 0-2.5 1.3-2.5 2.6 0 1.3 1.2 1.3 2.5 1.3h1.3v5.1h-9q0-2.5-1.3-2.5-2.5 0-2.5 2.5h-7.8v-5.1c1.3 0 2.6 0 2.6-1.3 0-1.3-1.3-2.6-2.6-2.6v-2.5h-5.1c0 0-1.3-1.3-1.3-3.9 0-2.6 1.3-3.8 1.3-3.8h74.6c1.3-2.6 2.5-5.2 5.1-5.2 1.3-5.1 5.2-9 9-9 5.2 0 10.3 7.7 10.3 18zm-20.6 0q0-3.8 0-6.4c-1.3 1.3-2.5 2.6-2.5 3.8v3.9q0 3.9 2.5 5.1 0-2.5 0-6.4zm-3.8-2.6h-73.3q0 1.3 0 2.6 0 1.3 0 1.3h73.3zm-51.5 6.4h-16.7v1.3c1.3 0 2.6 2.6 2.6 3.9 0 1.3-1.3 3.8-2.6 3.8v1.3h5.2q0-3.8 3.8-3.8 2.6 0 3.9 3.8h3.8v-1.3c-1.2 0-2.5-2.5-2.5-3.8 0-1.3 1.3-3.9 2.5-3.9zm73.3-3.8c0-9-3.8-16.8-7.7-16.8-2.6 0-5.1 3.9-6.4 9q-1.3 0-1.3 0 0 3.9 0 7.8 0 3.8 0 6.4 0 1.3 1.3 1.3c1.3 5.1 3.8 7.7 6.4 7.7 3.9 0 7.7-6.4 7.7-15.4z"/>
			</g>
		</g>
		<g id="Clip-Path: Clip-Path: path5878" clip-path="url(#cp12)">
			<g id="Clip-Path: path5878">
				<path id="path5878" fill-rule="evenodd" class="s0" d="m971.9 84.6l-5.2 16.7q0 0-1.3 1.3 0 0-1.3 0-2.5-1.3-5.1-2.6l-12.9 41.1q3.9 1.3 7.8 2.6h1.2l-3.8 11.6-1.3-1.3q-2.6 0-5.1-1.3l-1.3 3.9q2.5 1.3 5.1 1.3l1.3 1.2-3.9 11.6h-290.5l-3.9-11.6 1.3-1.2q2.6 0 5.2-1.3l-1.3-3.9q-2.6 1.3-5.2 1.3l-1.3 1.3-3.8-11.6h1.3q3.8-1.3 7.7-2.6l-12.9-39.8q-1.3 0-5.1 1.3 0 0-1.3 0 0 0 0-1.3l-6.4-16.7q0-1.3 1.3-1.3c12.8-5.2 24.4-9 38.5-11.6q1.3 0 2.6 0l3.9 3.9v-3.9q0-1.3 1.2-2.6c6.5-1.2 10.3-1.2 18-2.5v-1.3q1.3 0 1.3 1.3l3.9 2.5v-2.5q0-1.3 1.3-1.3c9-1.3 16.7-2.6 24.4-3.9q1.3 0 2.6 0l2.5 3.9v-2.6q0-1.3 1.3-2.6c6.4 0 12.9-1.2 18-1.2 0 0 1.7 0 2.6 0l2.6 5.1v-3.9q1.2-1.2 2.5-1.2c7.7-1.3 12.9-1.3 21.9-1.3q1.3 0 1.3 0l3.8 5.1v-3.8q1.3-1.3 2.6-1.3 1.3 0 3.9 0 5.1-1.3 10.2-1.3c3.9 0 5.2 0 7.8 1.3q2.5 0 3.8 0h1.3q1.3 0 1.3 1.3v3.8l3.8-5.1q1.3 0 1.3 0 14.2 0 27 1.3 1.3 0 2.6 1.2l-1.3 2.6c0.9-0.8 3.9-3.8 3.9-3.8 9 1.2 14.1 1.2 21.8 2.5q1.3 0 1.3 1.3v3.9l5.2-3.9q0 0 1.2 0h1.3c6.5 0 11.6 1.3 18 2.6q0 0 1.3 0 0 1.3 0 1.3v3.8l3.9-3.8q0 0 1.3 0 9.6 1.9 19.2 3.8 1.3 0 1.3 1.3v3.9l2.6-2.6q1.3-1.3 2.6-1.3c12.8 3.9 25.7 6.4 36 11.6q1.3 0 1.3 1.3zm-16.8 14.1c-1.2 0-5.1-1.3-10.2-2.6l-3.9 12.9q6.4 1.3 10.3 2.6zm-3.9 15.4q-1.3-1.3-2.5-1.3l-3.9 11.6q1.3 1.3 2.6 1.3zm-150.5 9c-51.4 0-102.8 7.7-150.4 23.1l2.6 5.2c46.3-15.5 96.4-23.2 147.8-23.2 52.8 0 102.9 7.7 149.2 23.2l2.6-5.2c-48.9-15.4-99-23.1-151.8-23.1zm146.6 5.1q-1.3-1.3-3.8-1.3-2.6-1.3-6.5-1.3l-3.8 11.6q5.1 1.3 10.3 3.9zm-285.5 27c43.7-14.2 91.3-20.6 140.2-20.6 47.5 0 95.1 6.4 140.1 20.6l1.3-3.9c-45-12.8-92.6-20.6-141.4-20.6-50.2 0-97.7 7.8-141.4 20.6zm140.1-16.7c-51.4 0-100.3 6.4-146.6 21.9l2.6 6.4c45-14.2 93.8-21.9 144-21.9 48.8 0 97.7 6.5 142.7 21.9l2.6-6.4c-46.3-15.5-95.2-21.9-145.3-21.9zm-144 2.6q3.9-1.3 6.4-2.6l-1.8-9 3.1 10.3c6.4-1.3 14.2-2.6 16.7-3.9l-2.5-12.8q-8.9 1.2-17.8 3.8l-0.2-1.3q-2 0.7-4 1 4.4-1.1 7.8-2.2 1.3-1.3 2.6-1.3l-2.6-11.6q-6.4 1.3-12.8 2.6l3.8 12.7q-1.3 0.1-2.6 0.1zm-2.5-15.4l-2.6-11.6q-1.3 0-2.6 0l3.9 12.9q1.3-1.3 1.3-1.3zm1.3-15.4l-2.6-11.6q-5.2 1.3-7.7 2.6l3.8 11.5q2.6-1.2 6.5-2.5zm16.7-20.6l-3.9-14.1q-19.3 5.1-36 11.5l5.2 12.9q15.4-5.2 34.7-10.3zm0 2.6c-5.2 1.3-12.9 3.8-18 5.1l3.8 12.9q9-2.6 18-5.2zm2.6 15.5q-3.9 0-7.7 1.2l2.6 12.9q3.8-1.3 9-2.6l-2.6-11.5q-1.3 0-1.3 0zm2.6-34.8l3.8 14.2q6.5-1.3 14.2-2.6l-2.6-14.1q-7.7 1.3-15.4 2.5zm18 59.2q7.7-2.6 15.4-3.9l-2.6-12.8q-2.6 0-5.1 1.3-1.3 0-2.6 0-2.6 0-5.1 1.2-1.3 0-2.6 0zm-7.7-11.5l2.6 12.8q1.2 0 2.5 0l-2.5-14.1q-1.3 0-2.6 1.3zm11.6-5.2q2.5 0 3.8 0 2.6-1.3 5.1-1.3l-2.5-12.8q-2.6 1.3-5.2 1.3-1.2 0-3.8 1.3zm-14.2-10.3l2.6 12.8q1.3-1.3 3.9-1.3 1.3 0 2.5-1.2 1.3 0 2.6 0l-2.6-11.6q-1.2 0-1.2 0-2.6 0-3.9 0-2.6 1.3-3.9 1.3zm-1.2-1.3q1.2-1.3 2.5-1.3l-2.5-12.9q-1.3 0-2.6 0zm-28.3 23.1q0.6-0.1 1.2-0.2-0.6 0.1-1.2 0.3zm5.4 0.1l0.5 2.6-0.7-2.6q0.1 0 0.2 0zm24.2-36l2.6 12.9q2.5 0 3.8-1.3 2.6 0 5.2-1.3 1.3 0 3.8 0 2.6 0 5.2-1.3l-1.3-6.4c0 0 3.8 0 9-1.3l-1.3-6.4q-14.1 2.6-27 5.1zm16.7-20.5l2.6 14.1q10.3-2.6 20.6-3.9l-1.3-14.1q-11.6 1.3-21.9 3.9zm11.6 15.4l1.3 6.4c5.1-1.3 10.3-1.3 10.3-1.3l1.2 6.5q1.3 0 2.6-1.3 2.6 0 6.4 0 1.3 0 2.6 0 1.3-1.3 2.6-1.3l-1.3-11.6q-12.9 0-25.7 2.6zm19.3-20.6l1.3 15.4q7.7-1.2 15.4-2.5l-1.3-14.2q-7.7 1.3-15.4 1.3zm9 16.7l1.3 12.9q2.5 0 3.8 0 2.6 0 3.9 0l-1.3-12.9q-3.9 0-7.7 0zm-11.6 29.6q2.6-1.3 3.9-1.3l-2.6-11.6q0 0-1.3 0-2.6 0-3.9 0l1.3 12.9q1.3 0 2.6 0zm-1.3 1.3l1.3 14.1q6.4-1.3 12.9-1.3l-1.3-14.1q0 0-1.3 0-1.3 0-3.9 1.3-2.5 0-5.1 0-1.3 0-2.6 0zm19.3-16.7q-2.6 1.3-3.9 1.3-2.5 0-5.1 0-2.6 0-3.9 0-1.2 0-1.2 1.2l1.2 11.6q1.3 0 1.3 0 1.3 0 2.6 0 3.9-1.3 6.4-1.3 1.3 0 2.6 0 2.6 0 3.9 0l-1.3-12.8q-1.3 0-2.6 0zm3.9 14.1q-1.3 0-2.6 1.3-2.6 0-3.9 0-1.3 0-1.3 0l1.3 14.1q3.9-1.2 7.7-1.2zm5.2-47.6l1.3 14.1q10.3 0 19.3 0v-14.1q-10.3 0-20.6 0zm23.1 43.7q2.6 0 5.2 0 1.3 0 1.3 0v-12.9q-1.3 0-1.3 0-2.6 0-6.5 0zm-9 2.6v14.2q9 0 16.8-1.3v-12.9q-1.3 0-1.3 0-3.9 0-6.5 0-2.5 0-3.8 0-2.6 0-5.2 0zm-5.1-15.4q0 0 1.3 0l-1.3-12.9q-2.6 0-6.4 0l1.3 12.9q2.5 0 5.1 0zm2.6 15.4q-1.3 0-2.6 0-1.3 1.3-3.9 1.3l1.3 12.9q2.6 0 5.2 0zm2.5-2.6q2.6 0 5.2 0 1.3 0 2.6 0v-12.9q-1.3 0-2.6 0-2.6 1.3-6.4 1.3-1.3 0-3.9 0-2.6 0-3.9 0v12.9q2.6 0 5.2 0 1.3-1.3 3.8-1.3zm-1.2-27v12.8q3.8 0 6.4 0 1.3 0 3.8 0 2.6 0 6.5 0h1.3v-7.7c0 0 5.1 0 10.2 0v-5.1q-14.1 0-28.2 0zm18-18l1.2 15.4q11.6-1.3 23.2 0v-15.4q-6.4 0-11.6 0-5.1 0-12.8 0zm12.8 18v5.1c5.2 0 11.6 0 11.6 0v7.7q1.3 0 2.6 0 3.8 0 7.7 0 1.3 0 3.8 0 2.6 0 3.9 0l1.3-12.8q-15.5 0-30.9 0zm42.4 14.1l1.3-12.8q-5.1 0-11.5 0v11.5q2.5 0 5.1 1.3 2.6 0 5.1 0zm-29.5 12.9q2.5 0 5.1 0v-12.9q-2.6 0-5.1 0 0 0-1.3 0v12.9q1.3 0 1.3 0zm-1.3 1.3l-1.3 14.1q9 0 18 1.3v-14.1q-1.3 0-3.9 0-1.2 0-3.8 0-3.9 0-7.7 0-1.3-1.3-1.3-1.3zm24.4 1.3q-2.6 0-3.8 0-1.3 0-1.3 0l-1.3 14.1q5.1 0 10.3 0l1.3-12.9q-2.6 0-5.2-1.2zm5.2-1.3l1.2-11.6q-2.5-1.3-5.1-1.3-2.6 0-5.1 0-2.6 0-6.5 0-2.5 0-5.1-1.3l-1.3 12.9q1.3 0 1.3 0 2.6 0 3.8 0 3.9 0 7.8 1.3 1.2 0 3.8 0 2.6 0 5.2 0zm-19.3-30.9q11.5 0 23.1 1.3l1.3-15.4q-11.6 0-24.4 0zm27 46.3q2.5 1.2 5.1 1.2l1.3-12.8q0-1.3-1.3-1.3-2.6 0-3.8 0zm1.2-15.4q1.3 0 3.9 0 1.3 1.3 2.6 1.3 3.8 0 6.4 0 0 0 1.3 0l1.3-11.6q-1.3 0-2.6 0-2.6-1.3-5.1-1.3-1.3 0-3.9 0-1.3 0-2.6-1.3zm1.3-14.1q1.3 0 3.9 1.3 1.3 0 1.3 0l2.5-12.9q-3.8-1.3-6.4-1.3zm1.3-15.4q9 0 18 1.3l1.3-14.2q-9-1.3-18-1.3zm12.8 33.5q-2.5 0-3.8 0-2.6 0-3.9 0l-2.6 12.8q7.8 0 14.2 1.3l1.3-12.8q-2.6 0-5.2-1.3zm6.5-1.3l1.2-11.6q-2.5 0-5.1-1.3l-2.6 12.9q3.9 0 6.5 0zm-11.6-28.3l-1.3 12.9q2.6 0 3.9 0 2.5 0 3.8 1.2 2.6 0 6.4 0l1.3-6.4c0 0 5.2 0 10.3 1.3l1.3-6.4q-12.9-1.3-25.7-2.6zm19.3-1.3q7.7 1.3 16.7 2.6l2.6-14.2q-9-1.2-16.8-2.5zm7.8 3.8l-1.3 6.5c5.1 1.2 9 2.5 9 2.5l-1.3 6.5q1.3 0 2.6 0 2.5 0 5.1 1.2 1.3 0 2.6 0 2.5 1.3 5.1 1.3 1.3 0 2.6 1.3l2.6-14.1q-12.9-2.6-27-5.2zm16.7 0q9 1.3 16.7 3.9l2.6-14.2q-7.8-2.5-15.5-3.8zm20.6 24.4l-2.6 11.6q0 0 1.3 1.3l3.9-12.9q-1.3 0-2.6 0zm10.3 15.4q2.6 1.3 5.1 1.3l3.9-11.5q-3.9-1.3-7.7-2.6-3.9-1.3-7.7-1.3l-2.6 11.6q2.6 1.3 6.4 1.3 1.3 1.2 2.6 1.2zm-16.7 11.6q5.1 1.3 10.3 2.6l3.8-12.9q0 0-1.3 0-5.1-1.3-10.3-2.5zm-1.2-30.9l2.5-14.1q-1.3 0-3.8-1.3l-2.6 14.1q1.3 0 3.9 1.3zm-3.9 14.1l2.6-12.8q-1.3 0-3.9 0-1.3-1.3-2.6-1.3-2.5-1.3-5.1-1.3-2.6 0-3.9 0l-2.5 11.6q2.5 0 3.8 1.3 2.6 0 5.2 0 1.3 1.3 2.5 1.3 2.6 0 3.9 1.2zm-6.4 14.2q1.3 0 3.8 0l2.6-12.9q-1.3 0-3.9 0 0 0 0-1.3zm-14.1-18q1.3 0 3.9 1.3l2.5-12.8q-2.5 0-3.8 0-1.3 0-1.3 0l-2.6 11.5q1.3 0 1.3 0zm-1.3 2.6l-2.6 12.9q7.8 1.3 15.5 2.5l2.5-12.8q-2.5 0-5.1-1.3-1.3 0-3.9 0-2.5-1.3-5.1-1.3 0 0-1.3 0zm34.7-10.3q5.2 1.3 11.6 3.9l3.9-14.2q-6.5-1.2-12.9-2.5zm41.1-20.6q-15.4-5.1-33.4-10.3l-3.8 14.2q18 3.8 33.4 10.2z"/>
			</g>
		</g>
		<g id="Clip-Path: Clip-Path: path5880" clip-path="url(#cp13)">
			<g id="Clip-Path: path5880">
				<path id="path5880" fill-rule="evenodd" class="s0" d="m785.4 314.7c2.6 5.2 5.2 12.9-3.8 23.2-10.3 10.2-20.6-2.6-24.5-1.3-3.8 1.3-7.7 0-10.2-1.3-1.3-2.6-1.3-1.3-2.6 0-1.3 2.6-3.9 7.7-3.9 14.1-1.3 5.2-1.3 25.7-1.3 33.5 0 7.7 0 15.4 2.6 21.8 2.6 6.4 2.6 9 6.4 12.9 3.9 2.5 5.2 2.5 14.2 2.5v1.3c0 0-9 0-11.6 0 0 0-7.7 3.9-14.1 3.9-10.3 0-16.7-3.9-16.7-3.9h-7.8l2.6-1.3q5.2 0 9-5.1c3.9-3.9 6.4-15.4 6.4-20.6 0-5.1 1.3-21.8 0-29.5-1.2-6.5-3.8-19.3-6.4-23.2-2.6-3.8-2.6 3.9-10.3 3.9-7.7 1.3-11.5-5.2-12.8-7.7 0-2.6-1.3-1.3-6.5-2.6-3.8-2.6-6.4-6.4-6.4-14.2-1.3-6.4 3.9-7.7 3.9-10.2 0-1.3-3.9-3.9-3.9-9 0-5.2 2.6-6.5 3.9-9 1.3-1.3-2.6-3.9-2.6-10.3 0-6.5 6.4-10.3 9-11.6 2.6-1.3-2.6-6.4 1.3-12.9 2.6-5.1 6.4-3.8 7.7-5.1 2.6-1.3-1.3-9 2.6-12.9 5.1-3.8 12.8-5.1 16.7-1.2 0 0 1.3 1.2 1.3 0 1.3 0 5.1-6.5 12.8-6.5 7.7 0 12.9 3.9 14.2 7.7 2.5 5.2 2.5 7.8 3.8 9 1.3 1.3 2.6 3.9 5.2 2.6 1.3-1.3 6.4-6.4 12.8-3.8 6.5 3.8 10.3 10.2 10.3 14.1 0 3.9-1.3 7.7-2.6 9-1.2 2.6-2.5 2.6-1.2 3.9 2.5 1.2 5.1 5.1 5.1 10.2-1.3 3.9 5.1 3.9 5.1 14.2 0 11.6-9 10.3-7.7 15.4zm-5.1-3.8c1.3-1.3 2.6 0 5.1-1.3 2.6-2.6 5.2-5.2 5.2-11.6 0-5.1-3.9-7.7-6.5-9-2.5-1.3-1.2-2.6 0-2.6 1.3 0 1.3-7.7-2.5-10.3-5.2-3.8-1.3-3.8 0-7.7 1.3-3.8 2.5-6.4 0-11.5-2.6-5.2-6.5-7.8-12.9-5.2-6.4 2.6-5.1 9-7.7 6.4-1.3-3.8-1.3-6.4-7.7-6.4-3.9 0 1.3-1.3 0-6.4 0-3.9-2.6-9-11.6-10.3-9-1.3-10.3 3.9-10.3 5.1 1.3 1.3 1.3 2.6 0 2.6-1.3 0-1.3 1.3-2.5 1.3-1.3 0-5.2-5.1-9-3.9-3.9 0-5.2 0-7.8 3.9-2.5 2.6-1.2 5.1-1.2 6.4 0 1.3 1.2 3.9 1.2 3.9 0 1.3 0 1.3-2.5 1.3-2.6 0-7.7 1.3-9 5.1-1.3 5.2 1.3 7.7 2.5 9 2.6 2.6 0 2.6-1.2 3.9-1.3 0-3.9 0-7.8 5.1-2.5 3.9-1.2 9 0 11.6 1.3 1.3 3.9 2.6 1.3 3.8-1.3 1.3-3.8 3.9-3.8 9 0 3.9 1.3 6.5 2.5 6.5 2.6 0 2.6 0 3.9 0 0 1.3 0 1.3-1.3 2.5-2.6 0-6.4 2.6-6.4 9 0 5.2 5.1 10.3 7.7 11.6 2.6 1.3 5.1 0 5.1 1.3 0 2.6 0 3.9 2.6 6.4 3.9 1.3 6.4 2.6 7.7 2.6 2.6-1.3 6.5-3.9 6.5-5.1 1.2-1.3 2.5-5.2 1.2-7.8 0-2.5 0-2.5 0-3.8 1.3-1.3 5.2-3.9 3.9-6.4 0-2.6-1.3-6.5-1.3-7.8q0-1.2 0 0c1.3 0 3.9 2.6 5.2 2.6 1.2 0 5.1-1.3 6.4-3.8 0-2.6 0-5.2 1.3-3.9 0 0 1.3 0 1.3 2.6 0 2.5-2.6 5.1-1.3 7.7 0 0 0 3.8 3.8 5.1 3.9 1.3 3.9 0 5.2 0 1.3 0 0 3.9 2.5 7.7 1.3 2.6 6.5 3.9 9 2.6 2.6 0 2.6-1.3 3.9 0 1.3 1.3 3.9 6.4 10.3 5.2 7.7-1.3 9-3.9 10.3-5.2 1.3-1.3 3.8-6.4 3.8-12.8-1.3-6.5-6.4-7.8-5.1-9zm-36 20.5c0 0 0-1.3 0 0 0 0-2.6 2.6-3.9 3.9 0 1.3-1.3 3.8-2.5 3.8-1.3 0-3.9-1.2-3.9-5.1-1.3-2.6-2.6-7.7-2.6-11.6-1.3-2.5-1.3-5.1-1.3-5.1h-1.2c-1.3 0 0 1.3 0 1.3 0 1.3 2.5 9 2.5 11.5 0 3.9 1.3 7.8 1.3 9-1.3 2.6-3.8 2.6-5.1 1.3-1.3-1.3-2.6-2.5-2.6-2.5 0 0 0 1.2 1.3 2.5 1.3 1.3 3.8 10.3 5.1 18 1.3 7.7 1.3 15.5 2.6 21.9 0 6.4-1.3 16.7-1.3 20.6-1.3 3.8-2.6 15.4-11.6 19.2 0 0 7.8 2.6 15.5 2.6 7.7 0 11.5-2.6 11.5-2.6 0 0-6.4-6.4-7.7-10.2-1.3-3.9-2.5-14.2-3.8-20.6 0-6.4 0-21.9 0-27 0-5.2 1.3-9 1.3-14.2 1.2-5.1 3.8-10.2 3.8-11.5 1.3-2.6 2.6-5.2 2.6-5.2zm-19.3 1.3c1.3 2.6 1.3 2.6 3.9 5.2 0 0 0 1.2 1.2 0 0-2.6 0-7.8-1.2-10.3 0-2.6 0-3.9-1.3-5.2-1.3-1.3-1.3 1.3-1.3 2.6-1.3 1.3-2.6 1.3-2.6 2.6 0 1.3 1.3 3.8 1.3 5.1zm7.7-9c1.3 5.2 2.6 10.3 2.6 10.3q1.3 1.3 2.6 0c0-1.3 1.2-2.6 2.5-3.9 0-1.2 1.3-2.5 0-3.8-1.3-1.3-2.5-1.3-2.5-2.6-1.3-1.3-3.9-3.8-3.9-5.1 0-1.3 0-2.6-1.3-1.3 0 1.3 0 2.6 0 6.4z"/>
			</g>
		</g>
		<g id="Clip-Path: Clip-Path: path5882" clip-path="url(#cp14)">
			<g id="Clip-Path: path5882">
				<path id="path5882" fill-rule="evenodd" class="s0" d="m915.3 363.6c1.3 1.3 0 7.7-1.3 10.3-1.3 2.5-2.6 3.8-2.6 3.8 0 0 0-1.3-1.3-2.6 0-1.2-2.5-2.5-2.5-5.1-1.3-1.3 0-3.9 0-5.1 0-2.6-2.6-3.9-5.2-3.9-2.5 0-2.5 2.6 0 5.1 1.3 2.6 5.2 9 6.5 11.6 2.5 2.6 3.8 9 3.8 12.9 0 2.5-1.3 6.4-5.1 9q0 1.3-2.6 2.5c0 0-5.1 0-6.4 0 0 0-1.3 3.9-2.6 5.2-2.6 1.3-6.4 5.1-9 6.4-1.3 0-6.4 2.6-10.3 2.6-2.6 1.3-3.8 1.3-5.1 2.6-1.3 0-3.9 1.2-3.9 3.8 0 2.6 0 3.9 2.6 5.2 1.3 0 3.8 0 5.1 0 2.6-1.3 3.9-1.3 6.5-1.3 1.2 0 3.8 0 5.1-1.3 1.3-1.3 2.6 0 3.9 1.3 0 1.3 1.2 3.8 0 5.1 0 2.6-2.6 5.2-3.9 9q-2.6 5.2-2.6 10.3 0 5.1 1.3 7.7c0 1.3 0 3.9 0 5.2 0 0-2.6 2.5-3.8 1.2-2.6-1.2-3.9-1.2-5.2-1.2 0 0-1.3 0-2.6 2.5-1.2 3.9-1.2 3.9-2.5 5.2-1.3 0-2.6 0-2.6 0-1.3 1.3-2.6 3.8-3.9 2.5q-1.2 0-1.2-2.5-1.3-1.3-1.3-1.3c0 0 0-1.3-1.3 0-1.3 0 0 1.3-1.3 1.3 0 1.3-1.3 1.3-2.6 1.3q-1.3 0-1.3-1.3c0-1.3 0-1.3-1.2-1.3 0 1.3 0 2.6-1.3 2.6-1.3 0-2.6-1.3-2.6-3.9v-1.3c-1.3-1.3-1.3-5.1 0-6.4 2.6-2.6 3.9-5.2 9-5.2 3.9 0 9 0 11.6 0 1.3-1.2 2.5-2.5 2.5-3.8 1.3 0 3.9-5.2 3.9-6.4 0-2.6 0-2.6 0-3.9 0-2.6 0-3.9-2.6-5.1-2.5 0-6.4-1.3-10.3-1.3-3.8 0-9-1.3-11.5-2.6-2.6-1.3-5.2-2.6-6.5-3.9-1.2-1.2-3.8-5.1-3.8-6.4-1.3-2.6-1.3-2.6-1.3-2.6l-2.6 1.3q-1.3 0-2.5 2.6c-1.3 1.3-2.6 2.6-1.3 3.9 0 0 3.8 1.2 5.1 2.5 1.3 0 3.9 1.3 3.9 2.6 1.3 1.3 1.3 3.9 0 6.4q-1.3 2.6-3.9 5.2c-1.3 1.3-2.6 2.5-3.8 5.1 0 1.3 0 5.2 1.2 7.7 1.3 2.6 1.3 5.2-2.5 6.5-2.6 0-3.9 0-5.2 0-1.3-1.3-1.3 1.2-1.3 1.2 0 1.3 1.3 3.9 0 3.9 0 1.3-1.2 2.6-2.5 2.6-1.3 1.3-1.3 1.3-1.3 2.5-1.3 1.3-2.6 1.3-2.6 1.3q-1.3 0-2.6-2.5c0-1.3-1.2-1.3-2.5 0 0 1.2-1.3 3.8-2.6 2.5-1.3-1.3-2.6-2.5-2.6-2.5q-1.3 0-2.5 1.2c0 1.3-2.6 2.6-2.6 1.3-1.3-1.3-1.3-3.8-1.3-5.1-1.3-1.3-1.3-1.3-1.3-2.6 0-2.6 1.3-6.4 5.2-7.7q7.7-1.3 10.2-2.6c1.3 0 5.2-2.5 7.8-3.8 1.2-1.3 2.5-2.6 3.8-5.2 0-2.5 0-3.8-1.3-6.4-1.3-3.9-1.3-3.9-1.3-6.4-1.2-1.3-5.1-7.7-6.4-10.3q-2.6-3.9-2.6-3.9c0 0-1.2-1.3-1.2-2.5 0 0 0-2.6 2.5-5.2 1.3-3.8 3.9-9 6.5-11.6 2.5-2.5 10.2-9 14.1-11.5 2.6-1.3 7.7-2.6 10.3-2.6 3.8-1.3 3.8-1.3 5.1-1.3 0-1.3 0-1.3-1.3-2.6-1.2-1.2-6.4-5.1-10.2-7.7q-3.9-5.8-3.9-7.7c-1.3-1.3-1.3-1.3-1.3-2.6-1.3 0-1.3-2.5-1.3-5.1-1.3-1.3-1.3-3.9-1.3-6.4 1.3-2.6 2.6-2.6 1.3-3.9 0-1.3-2.5-1.3-2.5 0q-1.3 1.3-3.9 2.6c0 0-2.6 0-1.3 0 0-1.3 1.3-6.4 0-6.4-1.3-1.3-3.8-1.3-6.4 0-2.6 1.2-5.2 1.2-6.4 2.5 0 0-2.6 1.3-3.9 2.6-1.3 1.3-3.9 1.3-3.9 0-1.2-1.3 0-3.9-2.5-3.9-1.3 1.3-5.2 0-5.2-1.2 0 0 3.9-2.6 3.9-5.2-1.3-2.6-2.6-2.6-2.6-3.8q0 0 3.9 0c1.3-1.3 2.5 0 2.5-3.9 1.3-2.6 1.3-3.9 2.6-2.6 1.3 2.6 2.6 5.2 3.9 5.2 1.3 1.3 5.1 1.3 6.4 2.5 1.3 0 3.9 0 6.4 0 2.6 0 2.6 0 3.9-1.2 0-2.6-1.3-3.9-3.9-5.2-3.8-2.6-3.8-2.6-2.5-2.6 1.2-1.2 0-2.5 0-2.5-1.3 0-3.9-2.6-6.5-2.6-1.3-1.3-2.5 0-2.5 0-1.3 0-1.3 2.6-2.6 3.9-1.3 1.2-1.3 1.2-2.6 0-1.3-1.3-1.3-3.9-3.8-2.6-3.9 0-5.2 0-5.2-1.3 0-2.6 2.6-5.1 2.6-6.4 1.3-2.6 0-1.3-1.3-5.2-1.3-2.5 1.3-2.5 3.9-1.3 1.2 0 2.5 1.3 2.5 0 1.3-1.2 2.6-5.1 2.6-5.1 1.3 0 1.3 1.3 2.6 2.6 1.3 1.3 1.3 0 1.3 2.5 1.2 1.3 1.2 2.6 2.5 1.3 1.3-1.3 2.6-1.3 2.6 0 1.3 1.3 2.6 1.3 2.6 2.6 1.3 1.3 2.5 3.9 3.8 3.9 1.3 0 2.6 0 0-2.6-2.5-2.6-6.4-6.4-7.7-7.7-1.3 0-1.3 0-1.3 1.3 0 0-1.3 0-1.3-1.3-1.2-1.3-3.8-5.2-5.1-5.2 0 0 0 1.3-1.3 2.6-1.3 1.3-2.6-1.3-3.8-2.6-1.3-2.5-2.6-6.4-2.6-7.7 0-2.6 0-3.8 1.3-2.6 1.3 0 2.5 1.3 2.5 2.6 1.3 0 2.6 2.6 3.9 2.6 1.3 0 1.3 0 0-1.3 0-1.3-3.9-3.9-5.1-6.4-1.3-2.6-3.9-6.5-3.9-11.6-1.3-3.9-1.3-7.7 0-10.3q1.3-3.8 2.6-3.8c1.3 1.2 2.5 2.5 3.8 5.1 0 2.6 1.3 7.7 2.6 11.6 1.3 2.5 1.3 6.4 2.6 7.7 1.3 1.3 1.3 0 1.3-1.3 0-1.3-3.9-12.9-3.9-15.4-1.3-3.9-2.6-9-2.6-14.2 0-6.4 0-7.7 1.3-10.3 1.3-2.5 3.9-3.8 5.2-1.2 1.2 2.5 1.2 2.5 1.2 5.1 0 1.3 0 14.1 1.3 16.7 0 2.6 1.3 3.9 1.3 3.9 1.3 0 1.3-1.3 1.3-2.6 0-1.3 0-10.3 0-14.1 0-3.9 1.3-7.8 1.3-11.6 0-2.6 1.3-6.4 3.8-9 1.3-1.3 2.6-1.3 3.9-1.3 1.3 0 2.6 0 2.6 1.3 1.3 1.3 0 3.8-1.3 6.4-1.3 3.9-1.3 7.7-2.6 10.3 0 2.6 0 6.4 0 6.4q1.3 1.3 1.3-1.3c1.3 0 2.6-5.1 2.6-7.7 1.3-2.5 5.1-7.7 9-10.3 3.8-3.8 10.3-6.4 12.8-3.8 2.6 2.6-2.5 6.4-3.8 7.7-1.3 1.3-7.7 9-9 10.3-1.3 2.6-2.6 2.6-2.6 5.1q-1.3 1.3-1.3 3.9-1.3 1.3-2.6 3.8c0 2.6-1.2 2.6-1.2 5.2 0 2.6-1.3 6.4 0 7.7 0 1.3 0 6.4 0 9 0 1.3 1.2 7.7 1.2 10.3 1.3 2.6 2.6 5.1 2.6 7.7 1.3 2.6 2.6 5.1 3.9 6.4 1.3 1.3 2.5 2.6 3.8 2.6v-1.3q-1.3-1.3-1.3-2.6c0-1.2 1.3 0 1.3 0 1.3 1.3 1.3-1.2 1.3-1.2-1.3-1.3-2.6-1.3-2.6-2.6v-1.3c1.3-1.3 0 0 1.3 1.3q2.6 0 2.6-2.6 0-1.3-1.3-2.6c-2.1-1-2.5-3.5-2.5-5.1q0 0-0.1 0 0 0 0.1 0-0.1-0.5-0.1-0.9c-1.1-0.2-2.5 0.1-2.5 0.9 0 0-1.3 0-1.3-1.3 0-2.6 0-3.8 1.3-3.8 1.3-1.3 3.8-2.6 5.1-3.9 0-1.3 0-3.9 1.3-5.1 2.6-2.6 6.4-3.9 9-3.9 1.3-1.3 6.4-1.3 7.7-1.3q3.9-1.3 3.9-1.3c0 0 1.3 1.3 0 2.6 0 1.3 0 1.3 1.3 1.3l1.2-1.3c0 0 1.3 1.3 0 3.9 0 1.2-1.2 2.5 0 2.5 1.3 1.3 2.6 0 2.6 0 0-1.3 1.3 0 0 2.6 0 2.6-2.6 2.6-1.3 3.9 0 1.2 1.3 1.2 2.6 1.2 0 0 0 1.3 0 2.6 0 1.3-2.6 2.6-1.3 3.9 0 1.3 1.3 1.3 1.3 1.3q1.3 0 1.3 1.2c0 0-1.3 1.3-1.3 2.6-1.3 2.6-1.3 2.6 0 2.6 0 1.3 0 2.6-1.3 2.6 0 1.2-1.3 0-1.3 0 0 0-1.3 0 0 0 0 1.2 1.3 1.2 1.3 2.5q0 1.3 0 1.3c-1.3 0-2.6 0-2.6 1.3 0 1.3 0 1.3 1.3 2.6q1.3 0 1.3 1.3-1.3 1.2 0 0 1.9 0 3.9-3.9 1.3-3.9 1.3-10.3c0-3.8-1.3-9-1.3-11.6-1.3-2.5-1.3-9-1.3-12.8 1.3-3.9 1.3-10.3 1.3-12.9-1.3-2.5-1.3-7.7-2.6-11.5-2.6-5.2-5.1-10.3-7.7-12.9-2.6-3.9-5.2-6.4-6.4-7.7-1.3-1.3-1.3-2.6-1.3-5.2 1.3-1.2 3.8-2.5 9 0 2.5 1.3 6.4 5.2 10.3 9 2.5 5.2 3.8 11.6 5.1 15.5 0 2.5 0 7.7 1.3 9q0 2.5 0 2.5 1.3 0 2.6-2.5c0-1.3 1.2-9-1.3-15.5-1.3-5.1-1.3-9-2.6-10.2-1.3-2.6-2.6-6.5-2.6-7.8 0-1.2 1.3-2.5 2.6-1.2 1.3 0 5.1 3.8 6.4 7.7 2.6 3.8 2.6 6.4 3.9 9 1.3 2.5 1.3 7.7 1.3 9 0 2.5 0 7.7 0 7.7 1.3 0 1.3 0 1.3-1.3 0-1.3 0-6.4 1.2-7.7 0-2.6 0-5.2-1.2-7.7 0-2.6 0-7.7 1.2-9 0-1.3 1.3-1.3 2.6-1.3 1.3 1.3 5.2 6.4 6.4 11.6 0 5.1-1.2 9-1.2 11.5-1.3 1.3-2.6 3.9-2.6 6.5 0 1.2-1.3 2.5-1.3 3.8 1.3 0 1.3 0 2.6-1.3 0-1.3 1.3-3.8 2.5-5.1 0-2.6 1.3-6.4 1.3-7.7q1.3-2.6 2.6-1.3c1.3 0 2.6 3.8 2.6 6.4 0 3.9-1.3 7.7-2.6 10.3-1.3 3.9-2.6 7.7-5.1 10.3-1.3 1.3-2.6 3.8-2.6 3.8 0 1.3 1.3 1.3 1.3 1.3 1.3-1.3 2.5-3.8 3.8-5.1 1.3-1.3 2.6-3.9 2.6-5.2q0-2.5 0-2.5c1.3 1.3 2.6 5.1 1.3 9 0 3.8-2.6 7.7-3.9 9-1.3 2.5-3.8 3.8-3.8 5.1l2.5-1.3c1.3 0 2.6-2.5 3.9-3.8 1.3 0 1.3-1.3 1.3-1.3q0-1.9 0 0c1.3 1.3 1.3 5.1 0 7.7 0 1.3-1.3 3.9-2.6 5.1 0 1.3-2.6 1.3-1.3 2.6 0 0 1.3 1.3 1.3 0 1.3-1.3 1.3-2.6 2.6-2.6 0-1.2 1.3-1.2 0 1.3 0 2.6-1.3 3.9-1.3 5.2q0 2.5 1.3 2.5c1.3 1.3 1.3 1.3 1.3 2.6-1.3 2.6-2.6 2.6-3.9 3.9-1.3 2.5-1.3 2.5 0 3.8 1.3 1.3 2.6 3.9 2.6 3.9q1.3 1.3 0 2.6-2.6 1.2-3.9 1.2c-1.3 0-1.3 0-1.3 0 0 1.3-1.2 3.9-2.5 5.2q-1.3 1.3-1.3 1.3c1.3 1.3 5.1 2.5 5.1 6.4l-1.3-1.3c-1.2 0-1.2 0-2.5 0-1.3 1.3-2.6 0-2.6 1.3 0 1.3 1.3 2.6 1.3 3.9 0 1.2 0 1.2-1.3 1.2l-2.6-2.5c-1.3 0-2.5-1.3-2.5 0 0 1.3 0 5.1 0 5.1 1.2 1.3-1.3 3.9-3.9 0-3.9-2.6-5.1 0-3.9 1.3 0 0-2.5 1.3-3.8-1.3-2.6-1.3-2.6-1.3-3.9 0 0 2.6-1.3 1.3-2.5 0 0-2.6-2.6-2.6-1.3 0 0 1.3-2.6 3.9-1.3 5.2 0 1.2-2.6 0-3.9-1.3 0-1.3-1.2 1.1-0.1 2.4-0.5-0.2-1.2-0.5-1.2-1.1-1.2 0 0 5.1 0 6.4 1.3 1.3 2.6 5.1 2.6 6.4q1.3 2.6 2.6 3.9c1.3 1.3 1.3 2.5 2.6 3.8 0 0 1.2 1.3 2.5 2.6 0 1.3 1.3 1.3 1.3 1.3q1.3 1.3 1.3 1.3c1.3 1.3 1.3 2.5 2.6 2.5 0 1.3 2.5 2.6 3.8 3.9 0 0 1.3 2.6 2.6 2.6 0 1.3 1.3 2.5 1.3 3.8 1.3 0 3.8 0 3.8 0 1.3-1.3 1.3-1.3 2.6-2.5v-1.3c1.3-1.3 1.3-1.3 1.3-2.6q0 0-1.3-2.6c0-1.3 0-3.8-1.3-5.1-1.3-1.3-1.3-2.6-1.3-3.9-1.2-1.3-3.8-3.8-3.8-5.1 0-1.3 0-2.6-1.3-3.9-1.3-2.5-2.6-5.1-1.3-7.7 0-2.6 1.3-5.1 5.2-5.1 2.5 0 7.7 0 11.5 5.1 0 0 3.9 1.3 3.9 3.9zm-66.9-65.6c0-0.4-0.3-0.1-0.9 0 0.7 0 1.9 0 0.9 0zm26.9 59c0.5 0.1 0.8 0.1 0.1 0.1q0 0-0.1-0.1zm-30.7 50.3c1.3-1.3 3.8-5.2 5.1-6.4 1.3-2.6 6.4-5.2 7.7-6.5 2.6-1.3 5.2-1.3 6.5-2.5 0 0 0-1.3-1.3-1.3q-1.3-1.3-1.3-2.6c-1.3 0-2.6 0-3.9 1.3-1.3 0-1.3 0-3.8 1.3-1.3 0-3.9 1.3-6.5 1.3-2.5 1.2-3.8 2.5-5.1 2.5-2.6 0-5.1 2.6-6.4 3.9-1.3 1.3-3.9 3.8-3.9 5.1q-1.9 2-3.8 3.9-1.3 3.8-3.9 6.4c0 2.6-1.3 3.9-1.3 5.2 0 1.2 1.3 1.2 2.6 3.8 1.3 2.6 1.3 3.9 2.6 6.4 1.2 3.9 3.8 7.8 5.1 9 0 2.6 1.3 5.2 1.3 6.5q0 1.9 0 3.8-1.3 2.6-2.6 5.2-2.6 2.5-5.1 3.8c-1.3 1.3-2.6 1.3-5.2 2.6-1.3 0-5.1 1.3-7.7 1.3-2.6 1.3-3.8 1.3-3.8 2.6-2.6 1.2-2.6 2.5-2.6 3.8 0 1.3 0 2.6 1.3 2.6 0 1.3 2.5 1.3 3.8 0 0-1.3 0 0 0-2.6 0-1.3 0-2.6 2.6-3.8 1.3-1.3 3.9-2.6 5.1-2.6 0 0 0 1.3-1.2 1.3-1.3 1.3-2.6 1.3-3.9 2.5-1.3 1.3-1.3 2.6-1.3 3.9 1.3 1.3 3.9 1.3 3.9 1.3 1.3 0 1.3-1.3 1.3-2.6 0-1.3 0-1.3 1.2-2.6 0-1.2 1.3-2.5 3.9-2.5 1.3-1.3 2.6-1.3 1.3 0q0 1.3-2.6 1.3c-1.3 1.2-1.3 2.5-1.3 3.8-1.3 0 0 1.3 0 2.6 0 0 2.6 0 3.9 0 1.3 0 1.3-1.3 2.6-2.6 0-1.3-1.3-2.6 0-3.8 0-2.6 1.2-2.6 2.5-2.6 1.3 0 3.9 1.3 5.2 0 0 0 0-1.3 0-2.6 0-1.3-1.3-2.6-1.3-5.1 0-3.9 2.6-9 5.1-11.6 1.3-3.9 1.3-5.1 1.3-7.7 0-1.3-1.3-1.3-2.6-2.6-2.5 0-5.1-1.3-5.1-6.4 0-3.9 5.1-6.4 6.4-6.4 1.3-1.3 2.6-1.3 2.6-1.3 1.3-1.3 1.3-2.6 1.3-5.2 0-1.3 1.3-2.5 1.3-5.1zm2.9-109.3q-0.3 0-0.3 0 0 0 0 0 0.2 0 0.3 0zm6.1 41.1q-1.3 0-1.3 0-1.3 1.3-2.6 1.3 0 0-1.3-1.3 0-1.2-1.3-1.2 0 0-1.2 0 0 1.2 0 1.2c0 1.3-1.3 1.3-1.3 1.3 0 1.3 0 1.3 1.3 0h1.2c1.3-1.3 1.3 0 1.3 0 0 1.3 1.3 1.3 1.3 1.3q1.3 0 1.3 0 0 0 1.3-1.3h1.3q0-1.3 0-1.3zm-11.6-12.8q0 0 1.3 1.3c1.3 0 1.3 0 2.6 0q0 0 0-1.3v-1.3c0.8 0 1.1-1.7 1.2-1.7-0.2-0.9-1.2-0.9-1.2-0.9h-1.3q0 1.3 0 1.3 1.3 1.3 0 1.3 0 1.3-1.3 1.3c0-1.3 0-1.3-1.3-1.3 0 0 0 0-1.3 0-1.3 0-1.3 0-1.3 0q0 1.3 0 1.3c1.3 0 0 1.3 1.3 0 0 0 0 0 1.3 0zm5.1-1.3q1.3 0 1.3 1.3l1.3 1.3c0 1.3 1.3 1.3 1.3 1.3 1.3 0 1.3 0 1.3-1.3-0.3 0-0.7 0-1.3 0 0-1.3 0 0 0-1.3-1.3-1.3-1.3-1.3-1.3-2.6 0 0-1.3 0-2.6 0 0-0.1 0 0.6 0 0.7 0 0.1 0 0.2 0 0.6zm0-0.6q0 0 0 0 0 0 0 0zm7.8 0.6q-1.3 0-1.3 1.3 0 0 1.3 0 0 0 0-1.3zm0-24.4c1.2-1.3 0-3.9 0-5.2 0-1.3-2.6-3.8-3.9-3.8-1.3 0-2.6 1.3-3.9 1.3-2.5 1.2-1.2 2.5-1.2 2.5 1.2-1.3 5.1 0 5.1 0 3.9 2.6 3.9 3.9 3.9 3.9-1.3 0-3.9 0-3.9 0 0 0-1.3 0-1.3 1.3 1.3 1.3 5.2 1.3 5.2 0zm2.5-10.3c0 1.3 1.3 0 1.3 0v-1.3q-1.3-1.3-1.3 0c-1.3 0-1.3 1.3 0 1.3zm0 46.3q0 0 0 1.3c0 0-1.3 1.2 0 1.2q1.3 0 1.3-1.2 0-1.3-1.3-1.3zm2.6-47.6c1.3 1.3 1.3 0 1.3 0q1.3-1.3 1.3-1.3 0-1.3-1.3-1.3c0 0 0 1.3-1.3 1.3q0 1.3 0 1.3zm7.7 55.3c0 0 0-1.3 1.3-1.3 0-1.3 2.6 0 2.6 0 1.3 0 1.3-1.3 1.3-1.3 0-1.3 0-2.6 0-2.6 1.2 0 2.5 1.3 3.8 1.3 1.3 0 1.3 0 1.3-1.3 0 0 1.3-1.2 2.6-1.2 0 0 1.3 1.2 2.5 1.2 1.3 0 2.6 0 1.3-1.2q0-1.3 0-2.6-1.3 0 0-1.3 1.3 0 1.3 0c1.3 1.3 2.6 0 2.6 0q0 0 0-1.3c0 0 0 0-1.3 0-0.9 0-3 0-3.9 0q0 0-1.2 0 0 0 0 1.3c0 0 1.2 1.3 1.2 2.6 1.3 0 1.3 0 1.3 1.3q0 0-1.3 0c0 0-1.2 0-2.5-1.3l-2.6-1.3q0 1.9 0 3.8 0 0-1.3 0c0 0-1.3 0-2.6 0l-1.2-1.2h-1.3v2.5c0 1.3 0 1.3-1.3 1.3 0 0-1.3 0-1.3-1.3q-1.3 0-1.3 0c-1.3 0-1.3 1.3-1.3 1.3q0 1.3 1.3 2.6zm18-15.4q0 0 1.3 1.2 0 0 1.3 0c0-1.2 0-1.2 1.3-1.2 0 0 1.3 1.2 1.3 0 1.2 0 1.2-1.3 1.2-1.3q-1.2-1.3-1.2-1.3c-1.3 0-1.3 0-1.3 1.3 0 1.3 0 0-1.3 0q0 1.3-1.3 0c-1.3 0-1.3 0-1.3 1.3zm1.3-47.6q0 1.3 0 1.3c1.3 1.3 1.3 0 1.3 0q1.3-1.3 0-1.3 0 0 0-1.3c0 0 1.3-1.3 0-1.3 0 0 0 0-1.3 1.3 0 0 0 0 0 1.3zm1.3 2.6q0 1.2 0 1.2c0 1.3 0 1.3 0 1.3 1.3 0 1.3 0 1.3 0q0-1.3 0-1.3 0 0 0-1.2c0 0 0 0-1.3 0zm2.6 33.4q0 1.3 0 2.6c0 1.2 0 1.2 0 1.2-1.3 1.3-1.3 1.3-1.3 1.3-1.3 0-1.3 0-1.3 0 0 1.3 0 1.3 1.3 2.6q0 0 0-1.3 1.3-1.3 1.3-1.3 1.2 0 1.2 0 0-1.3 0-2.5c0 0-1.2-1.3-1.2-2.6 0 0 0 0 0-1.3q0-1.3-1.3 0c0 1.3 0 1.3 1.3 1.3zm0-29.6q0 0 1.2-1.3c0 0 0 0 1.3 1.3q0 0 0 1.3c-1.3 0 0 1.3 0 1.3 1.3 0 3.9 0 3.9 0v1.3q-1.3 1.3-1.3 2.5 0 0 1.3 1.3c1.3 0 2.6 0 2.6 0q1.2 0 1.2 0 0 1.3 0 1.3c-1.2 1.3-1.2 2.6-1.2 3.9-1.3 0 0 0 0 1.3 0.8 0.8 2.5 2.5 2.5 2.5 0 1.3 0 1.3 0 1.3q-1.3 1.3-1.3 2.6 0 1.3 1.3 2.6c1.3 0 2.6 1.2 2.6 2.5 0 0 0 0 0 1.3-1.3 0-2.6 0-2.6 1.3q-1.3 1.3-1.3 2.6c0 0 1.3 2.5 2.6 2.5q0 1.3 0 2.6c0 0 0 0-1.3 0q-1.3 1.3-2.5 1.3c0 1.3 0 2.6 1.2 3.9q0 2.5 0 3.8c0 0 0 0 0 1.3q-1.2 0-1.2-1.3c0 0-1.3 0-1.3 1.3q-1.3 0-1.3 0 1.3 1.3 1.3 0c1.3 0 3.8 0 3.8 0q0-2.6 0-3.9c0-1.2-1.3-2.5-1.3-2.5 0-1.3 1.3-1.3 2.6-2.6q1.3 0 2.6-1.3 0-1.3-1.3-2.6c0 0-1.3-1.2-2.6-2.5 0 0 1.3-1.3 1.3-2.6 1.3 0 2.6-2.6 2.6-2.6q1.3-1.3-1.3-2.5c-1.3 0-1.3-1.3-2.6-1.3-1.3-1.3 1.3-2.6 2.6-3.9q1.3-1.3 0-2.6c-1.3 0-3.9-1.2-3.9-1.2-1.2 0-1.2 0 0-1.3 0-1.3 1.3-2.6 1.3-3.9 1.3-1.3 1.3-2.6 0-2.6 0-1.2-2.5 0-3.8 0 0 0-1.3 0 0-1.2 0-1.3 1.3-2.6 1.3-2.6q0-1.3-1.3-1.3-1.3 0-2.6 0 0 0-1.3 0c-1.3 0-1.3-2.6-1.3-2.6 0-1.3 1.3-1.3 1.3-2.5 0 0-1.3 0-1.3 1.2-1.3 0-2.5 1.3-2.5 1.3q-1.3 0 0 1.3zm5.1-11.6c0 0 0 0 1.3 0 0-1.2 0 0 0 0 0 0 0 1.3 0 2.6 0 1.3 1.3 1.3 1.3 1.3 0-1.3 0-5.1 0-6.4q-1.3 0-1.3 0c-1.3 0-1.3 0-1.3 0 0 1.3 0 1.3-1.3 1.3zm5.2 5.1q0 1.9 0 0c1.2 0 0 0 0-1.3zm-86.2 66.9q0 0-1.3 0 0 0 0 1.3 0 1.2 1.3 0 0 0 0-1.3zm-3.8-7.7q-1.3 0-1.3 0-1.3 0 0 1.2c1.3 0 1.3-1.2 1.3-1.2zm6.4-25.8q-1.3-1.2-1.3-1.2c0-1.3-1.3 0 0 0 0 1.2 0 1.2 0 1.2 1.3 0 1.3 0 1.3 0zm-1.3 9q-1.3 0-1.3 0 0 1.3 0 1.3 0 1.3 1.3 0 0-1.3 0-1.3zm-3.9-6.4q0 0 0-1.3-1.2 0-1.2 0 0 0 0 1.3zm-1.3 3.9q-1.3 0-1.3 0c0 0-1.3 1.3 0 1.3q1.3 0 1.3 0 0 0 0-1.3zm15.4-21.9q0 0-1.3 0c0 1.3 0 1.3 1.3 1.3 0 1.3 0 1.3 1.3 1.3 0-1.3 0-1.3-1.3-2.6zm0 3.9q-1.3 0-1.3 1.3 0 0 0 1.2 1.3 0 1.3 0c1.3 0 1.3-1.2 2.6-2.5 0 0 0 0-1.3 0 0 1.3-1.3 0-1.3 0zm-1.3-5.2q0 1.3 0 0 0 0 1.3 0c0 0 0 0 0-1.3v-1.2c-1.3 1.2-2.6 0-2.6 1.2q0 0 0 1.3c0 0 0 0 1.3 0zm0-3.8q1.3 0 1.3-1.3c-1.3 0-1.3 0-1.3-1.3q0 2.6 0 2.6zm88.7 74.5q0-5.7-3.8-7.7c0 0-1.3-2.5-2.6-2.5-1.3 0-5.1-3.9-7.7-2.6-2.6 1.3-5.2 2.6-3.9 7.7 1.3 5.1 6.5 11.6 7.7 14.1 1.3 2.6 3.9 7.8 2.6 11.6 0 3.9-1.3 6.4-3.8 6.4-1.3 1.3-5.2 1.3-7.8-1.2-2.5-3.9-3.8-5.2-6.4-6.5 0 0 0-1.3-1.3-1.3-1.3-1.2-1.3-2.5-2.5-3.8-1.3 0-5.2-5.2-6.5-7.7-1.3-1.3-5.1-6.5-5.1-7.7 0-1.3-1.3-3.9-1.3-5.2 0 0 0-6.4-1.3-5.1l-1.3 1.3c-1.3 0 0-2.6-1.3-3.9-1.2 0-2.5 0-3.8 1.3q-1.3 2.6-2.6 2.6c-1.3 0 0 0-1.3-1.3-1.3-1.3-1.3-3.9-2.5-2.6 0 1.3-2.6 5.1-3.9 6.4-1.3 0-1.3-3.8-1.3-5.1 0 0-1.3-2.6-2.6-1.3-2.5 1.3-1.2 3.9-1.2 3.9 0 0-2.6 0-2.6-2.6-1.3-2.6-3.9-1.3-3.9 0 0 2.6 0 5.1 1.3 7.7 0 1.3 3.9 9 6.4 11.6 2.6 2.5 5.2 3.8 7.8 6.4 2.5 2.6 3.8 3.9 5.1 5.1 1.3 0 3.9 2.6 5.1 3.9 2.6 1.3 2.6 1.3 2.6 2.6q0 1.3-1.3 1.3c0 0 0 0-1.3 0-1.2 0-5.1 0-6.4 1.2-2.6 1.3-3.8 1.3-5.1 2.6-1.3 2.6-3.9 3.9-5.2 5.2-1.3 1.2-3.8 5.1-5.1 6.4 0 1.3-1.3 5.1 0 6.4q0 3.9 1.3 6.4c0 2.6 1.3 5.2 6.4 6.5 3.9 2.5 9 3.8 14.1 3.8 5.2 0 10.3 0 11.6 2.6 2.6 2.6 1.3 6.4 1.3 7.7-1.3 2.6-2.6 10.3-3.9 12.9-2.5 2.5-9 2.5-11.5 2.5-2.6 0-7.7 0-9 1.3-2.6 1.3-3.9 3.9-3.9 5.2 0 2.5 2.6 2.5 2.6 2.5 1.3 0 0-2.5 1.3-3.8 0 0 0-2.6 3.8-3.9q3.9 0 3.9 0c0 1.3 0 1.3-1.3 1.3 0 0-2.6 0-3.9 1.3 0 0-1.2 2.6-1.2 3.9 0 1.2 0 2.5 2.5 2.5 2.6 0 2.6-1.3 2.6-3.8q1.9-2 3.9-3.9 1.9 0 3.8 0c0 0 0 1.3-1.3 1.3 0 0-3.8 1.3-3.8 2.6 0 1.3-1.3 2.5 0 2.5 1.3 1.3 2.5 2.6 3.8 1.3q2.6 0 3.9-3.8c0-1.3 1.3-3.9 3.8-3.9 2.6 0 3.9 1.3 5.2 1.3 1.3 0 0-2.6 0-5.1 0-1.3 0-9 0-11.6 1.3-3.9 3.8-7.7 5.1-11.6 1.3-2.6 2.6-3.8 1.3-5.1 0-1.3-2.6-2.6-3.8-1.3-2.6 0-9 2.6-11.6 2.6q-5.8 0-7.7-3.9c-1.3-2.6 0-7.7 2.5-9 1.3-2.6 3.9-3.9 9-5.1 5.2 0 9-1.3 11.6-2.6 3.9-1.3 6.4-5.2 7.7-6.4 1.3-2.6 1.3-5.2 2.6-3.9 1.3 0 3.9 0 6.4-1.3 2.6 0 3.9-2.6 5.2-6.4 0-3.9 0-5.2-1.3-9-2.6-5.2-5.2-9-6.4-11.6-2.6-3.8-3.9-6.4-5.2-9 0-1.3 1.3-3.8 2.6-3.8 2.6 0 6.4 1.2 7.7 2.5 2.6 1.3 1.3 0 1.3 1.3 1.3 1.3 0 3.9 0 5.2 1.3 1.2 2.6 5.1 2.6 5.1 1.2 0 2.5-1.3 2.5-3.9zm-104.1-23.1z"/>
			</g>
		</g>
		<g id="Clip-Path: Clip-Path: path5884" clip-path="url(#cp15)">
			<g id="Clip-Path: path5884">
				<path id="path5884" fill-rule="evenodd" class="s1" d="m686.4 571.9v16.7h-39.8v27h-12.9l-12.8-43.7z"/>
			</g>
		</g>
		<g id="Clip-Path: Clip-Path: path5886" clip-path="url(#cp16)">
			<g id="Clip-Path: path5886">
				<path id="path5886" fill-rule="evenodd" class="s2" d="m646.6 615.6v-27l39.8-16.7"/>
			</g>
		</g>
		<g id="Clip-Path: Clip-Path: path5888" clip-path="url(#cp17)">
			<g id="Clip-Path: path5888">
				<path id="path5888" fill-rule="evenodd" class="s1" d="m782.9 588.6v9h-15.5v34.7h-120.8v-16.7-27z"/>
			</g>
		</g>
		<g id="Clip-Path: Clip-Path: path5890" clip-path="url(#cp18)">
			<g id="Clip-Path: path5890">
				<path id="path5890" fill-rule="evenodd" class="s2" d="m767.4 597.6l15.5-10.3v10.3"/>
			</g>
		</g>
		<g id="Clip-Path: Clip-Path: path5892" clip-path="url(#cp19)">
			<g id="Clip-Path: path5892">
				<path id="path5892" class="s3" d="m830.4 597.6l-14.1-10.3v11.6"/>
			</g>
		</g>
		<g id="Clip-Path: Clip-Path: path5894" clip-path="url(#cp20)">
			<g id="Clip-Path: path5894">
				<path id="path5894" fill-rule="evenodd" class="s1" d="m830.4 632.3v18h-63v-18z"/>
			</g>
		</g>
		<g id="Clip-Path: Clip-Path: path5896" clip-path="url(#cp21)">
			<g id="Clip-Path: path5896">
				<path id="path5896" fill-rule="evenodd" class="s1" d="m782.9 597.6h33.4"/>
			</g>
		</g>
		<g id="Clip-Path: Clip-Path: path5898" clip-path="url(#cp22)">
			<g id="Clip-Path: path5898">
				<path id="path5898" fill-rule="evenodd" class="s0" d="m665.9 611.7v-1.3c0-7.7 2.5-12.8 6.4-12.8 3.9 0 6.4 5.1 6.4 12.8v1.3q0 5.2-1.3 9l1.3 2.6-1.3 1.3-2.5-2.6q-1.3 2.6-2.6 2.6c-3.9 0-6.4-3.9-6.4-12.9zm7.7 9l-2.6-2.6 1.3-2.5 2.6 2.5q0-2.5 0-6.4v-1.3c0-6.4-1.3-9-2.6-9-2.6 0-3.9 2.6-3.9 9v1.3c0 6.4 1.3 9 3.9 9q0 0 1.3 0z"/>
			</g>
		</g>
		<g id="Clip-Path: Clip-Path: path5900" clip-path="url(#cp23)">
			<g id="Clip-Path: path5900">
				<path id="path5900" class="s0" d="m681.3 616.9v-18h2.6v18q0 3.8 2.5 3.8 2.6 0 2.6-3.8v-18h3.9v18c0 5.1-2.6 7.7-6.5 7.7-2.5 0-5.1-2.6-5.1-7.7z"/>
			</g>
		</g>
		<g id="Clip-Path: Clip-Path: path5902" clip-path="url(#cp24)">
			<g id="Clip-Path: path5902">
				<path id="path5902" class="s0" d="m695.4 598.9h10.3v2.5h-6.4v7.7h5.1v3.9h-5.1v7.7h6.4v3.9h-10.3z"/>
			</g>
		</g>
		<g id="Clip-Path: Clip-Path: path5904" clip-path="url(#cp25)">
			<g id="Clip-Path: path5904">
				<path id="path5904" fill-rule="evenodd" class="s0" d="m708.3 598.9h3.8c3.9 0 7.8 2.5 7.8 7.7 0 3.8-1.3 5.1-3.9 6.4l3.9 11.6h-3.9l-2.6-10.3q-1.3 0-1.3 0h-1.2v10.3h-2.6zm3.8 12.8c2.6 0 3.9-2.5 3.9-5.1 0-3.9-1.3-5.2-3.9-5.2h-1.2v10.3z"/>
			</g>
		</g>
		<g id="Clip-Path: Clip-Path: path5906" clip-path="url(#cp26)">
			<g id="Clip-Path: path5906">
				<path id="path5906" class="s0" d="m722.4 598.9h9v2.5h-6.4v7.7h6.4v3.9h-6.4v7.7h6.4v3.9h-9z"/>
			</g>
		</g>
		<g id="Clip-Path: Clip-Path: path5908" clip-path="url(#cp27)">
			<g id="Clip-Path: path5908">
				<path id="path5908" fill-rule="evenodd" class="s0" d="m734 598.9h3.9q7.7 0 7.7 7.7c0 3.8-1.3 5.1-3.9 6.4l5.2 11.6h-5.2l-2.6-10.3q0 0-1.2 0v10.3h-3.9zm3.9 12.8c2.5 0 3.8-2.5 3.8-5.1 0-3.9-1.3-5.2-3.8-5.2z"/>
			</g>
		</g>
		<g id="Clip-Path: Clip-Path: path5910" clip-path="url(#cp28)">
			<g id="Clip-Path: path5910">
				<path id="path5910" fill-rule="evenodd" class="s0" d="m856.1 598.9h3.9q7.7 0 7.7 7.7c0 6.4-2.6 9-6.4 9h-1.3v9h-3.9zm5.2 12.8q3.8 0 3.8-5.1 0-5.2-3.8-5.2h-1.3v10.3z"/>
			</g>
		</g>
		<g id="Clip-Path: Clip-Path: path5912" clip-path="url(#cp29)">
			<g id="Clip-Path: path5912">
				<path id="path5912" fill-rule="evenodd" class="s0" d="m870.3 611.7v-1.3c0-7.7 2.6-12.8 6.4-12.8 3.9 0 6.4 5.1 6.4 12.8v1.3c0 9-2.5 12.9-6.4 12.9-3.8 0-6.4-3.9-6.4-12.9zm9 0v-1.3c0-6.4-1.3-9-2.6-9-2.6 0-2.6 2.6-2.6 9v1.3c0 6.4 0 9 2.6 9 1.3 0 2.6-2.6 2.6-9z"/>
			</g>
		</g>
		<g id="Clip-Path: Clip-Path: path5914" clip-path="url(#cp30)">
			<g id="Clip-Path: path5914">
				<path id="path5914" fill-rule="evenodd" class="s0" d="m885.7 598.9h3.9c5.1 0 9 3.8 9 11.5v1.3c0 7.7-3.9 12.9-9 12.9h-3.9zm3.9 21.8c2.5 0 5.1-2.5 5.1-9v-1.3c0-6.4-2.6-9-5.1-9z"/>
			</g>
		</g>
		<g id="Clip-Path: Clip-Path: path5916" clip-path="url(#cp31)">
			<g id="Clip-Path: path5916">
				<path id="path5916" class="s0" d="m899.9 598.9h10.2v2.5h-6.4v7.7h5.2v3.9h-5.2v7.7h6.4v3.9h-10.2z"/>
			</g>
		</g>
		<g id="Clip-Path: Clip-Path: path5918" clip-path="url(#cp32)">
			<g id="Clip-Path: path5918">
				<path id="path5918" fill-rule="evenodd" class="s0" d="m912.7 598.9h3.9c3.8 0 7.7 2.5 7.7 7.7 0 3.8-1.3 5.1-3.9 6.4l3.9 11.6h-3.9l-2.5-10.3q-1.3 0-1.3 0v10.3h-3.9zm3.9 12.8c2.5 0 3.8-2.5 3.8-5.1 0-3.9-1.3-5.2-3.8-5.2z"/>
			</g>
		</g>
		<g id="Clip-Path: Clip-Path: path5920" clip-path="url(#cp33)">
			<g id="Clip-Path: path5920">
				<path id="path5920" class="s0" d="m789.3 615.6h9v3.8h-6.4v7.7h5.1v2.6h-5.1v7.7h6.4v3.9h-9z"/>
			</g>
		</g>
		<g id="Clip-Path: Clip-Path: path5922" clip-path="url(#cp34)">
			<g id="Clip-Path: path5922">
				<path id="path5922" class="s0" d="m799.6 640v-3.9q2.5 1.3 5.1 1.3 1.3 1.3 2.6-2.5c0-1.3-1.3-2.6-3.9-5.2-2.5-3.8-3.8-5.1-3.8-7.7 0-3.9 2.5-6.4 6.4-6.4q2.6 0 3.9 1.3v3.8q-2.6-1.3-3.9-1.3c-1.3 0-2.6 0-2.6 2.6 0 1.3 0 1.3 2.6 5.1 3.9 3.9 3.9 5.2 3.9 7.8 0 3.8-2.6 6.4-5.2 6.4q-2.6 0-5.1-1.3z"/>
			</g>
		</g>
		<g id="Clip-Path: Clip-Path: path5924" clip-path="url(#cp35)">
			<g id="Clip-Path: path5924">
				<path id="path5924" fill-rule="evenodd" class="s1" d="m912.7 571.9v16.7h38.6v27h14.1l11.6-43.7z"/>
			</g>
		</g>
		<g id="Clip-Path: Clip-Path: path5926" clip-path="url(#cp36)">
			<g id="Clip-Path: path5926">
				<path id="path5926" fill-rule="evenodd" class="s2" d="m951.3 615.6v-27l-38.6-16.7"/>
			</g>
		</g>
		<g id="Clip-Path: Clip-Path: path5928" clip-path="url(#cp37)">
			<g id="Clip-Path: path5928">
				<path id="path5928" fill-rule="evenodd" class="s1" d="m816.3 588.6v9h14.1v34.7h120.9v-16.7-27z"/>
			</g>
		</g>
		<g id="Clip-Path: Clip-Path: path5930" clip-path="url(#cp38)">
			<g id="Clip-Path: path5930">
				<path id="path5930" fill-rule="evenodd" class="s2" d="m830.4 597.6l-14.1-10.3v10.3"/>
			</g>
		</g>
	</g>
	<g id="TEXTO">
		<g id="Portoviejo">
			<g id="Clip-Path: Clip-Path: path5738" clip-path="url(#cp39)">
				<g id="Clip-Path: path5738">
					<path id="path5738" fill-rule="evenodd" class="s0" d="m58.9 871.3h65.5q15.5 0 27 3.8 11.6 2.6 20.6 10.3 7.7 6.5 11.6 16.7 5.1 10.3 5.1 23.2 0 12.8-5.1 23.1-5.2 10.3-12.9 18-9 6.5-21.8 10.3-11.6 3.9-25.8 3.9h-21.8v43.7h-42.4zm63 75.8q11.5 0 18-5.1 6.4-5.1 6.4-15.4 0-10.3-6.4-15.5-6.5-5.1-18-5.1h-20.6v41.1z"/>
				</g>
			</g>
			<g id="Clip-Path: Clip-Path: path5740" clip-path="url(#cp40)">
				<g id="Clip-Path: path5740">
					<path id="path5740" fill-rule="evenodd" class="s0" d="m283.9 1026.9q-18 0-33.5-6.5-14.1-6.4-25.7-16.7-10.3-10.3-16.7-24.4-6.4-15.4-6.4-30.9v-1.3q0-16.7 6.4-30.8 6.4-14.2 16.7-25.7 11.6-10.3 27-16.7 14.2-6.5 32.2-6.5 18 0 33.4 6.5 14.1 6.4 25.7 16.7 10.3 11.5 16.7 25.7 6.4 14.1 6.4 30.8 0 16.8-6.4 30.9-6.4 15.4-16.7 25.7-11.6 10.3-27 16.7-14.1 6.5-32.1 6.5zm0-38.6q9 0 16.7-2.6 6.4-3.8 11.5-9 5.2-5.1 7.8-12.8 2.5-7.8 2.5-15.5v-1.3q0-7.7-2.5-15.4-2.6-7.7-7.8-12.8-5.1-6.5-12.8-9-6.4-3.9-15.4-3.9-9 0-16.8 3.9-6.4 2.5-11.5 9-5.2 5.1-7.7 12.8-2.6 6.4-2.6 15.4 0 9 2.6 15.5 2.5 7.7 7.7 14.1 5.1 5.2 12.8 9 6.5 2.6 15.5 2.6z"/>
				</g>
			</g>
			<g id="Clip-Path: Clip-Path: path5742" clip-path="url(#cp41)">
				<g id="Clip-Path: path5742">
					<path id="path5742" fill-rule="evenodd" class="s0" d="m388 871.3h73.3q16.7 0 29.6 3.8 11.5 3.9 19.2 12.9 14.2 12.9 14.2 34.7v1.3q0 16.7-9 29.6-7.7 11.5-23.2 16.7l37.3 54h-48.8l-30.9-46.3h-19.3v46.3h-42.4zm70.7 73.3q11.6 0 16.7-5.2 6.5-5.1 6.5-12.8 0-10.3-6.5-14.2-6.4-5.1-16.7-5.1h-28.3v37.3z"/>
				</g>
			</g>
			<g id="Clip-Path: Clip-Path: path5744" clip-path="url(#cp42)">
				<g id="Clip-Path: path5744">
					<path id="path5744" class="s0" d="m583.4 908.6h-46.3v-37.3h133.8v37.3h-45v115.7h-42.5z"/>
				</g>
			</g>
			<g id="Clip-Path: Clip-Path: path5746" clip-path="url(#cp43)">
				<g id="Clip-Path: path5746">
					<path id="path5746" fill-rule="evenodd" class="s0" d="m767.3 1026.9q-18 0-33.4-6.5-14.2-6.4-25.8-16.7-10.2-10.3-16.7-24.4-6.4-15.4-6.4-30.9v-1.3q0-16.7 6.4-30.8 6.5-14.2 16.7-25.7 11.6-10.3 27-16.7 14.2-6.5 32.2-6.5 18 0 33.4 6.5 14.2 6.4 25.7 16.7 10.3 11.5 16.7 25.7 6.5 14.1 6.5 30.8 0 16.8-6.5 30.9-6.4 15.4-16.7 25.7-11.5 10.3-27 16.7-14.1 6.5-32.1 6.5zm0-38.6q9 0 15.4-2.6 7.7-3.8 12.9-9 5.1-5.1 7.7-12.8 2.6-7.8 2.6-15.5v-1.3q0-7.7-2.6-15.4-2.6-7.7-7.7-12.8-5.2-6.5-12.9-9-6.4-3.9-15.4-3.9-9 0-16.7 3.9-6.5 2.5-11.6 9-5.1 5.1-7.7 12.8-2.6 6.4-2.6 15.4 0 9 2.6 15.5 2.6 7.7 7.7 14.1 5.1 5.2 12.9 9 6.4 2.6 15.4 2.6z"/>
				</g>
			</g>
			<g id="Clip-Path: Clip-Path: path5748" clip-path="url(#cp44)">
				<g id="Clip-Path: path5748">
					<path id="path5748" class="s0" d="m859.9 871.3h47.5l34.7 96.4 34.8-96.4h46.2l-61.7 154.3h-39.8z"/>
				</g>
			</g>
			<g id="Clip-Path: Clip-Path: path5750" clip-path="url(#cp45)">
				<g id="Clip-Path: path5750">
					<path id="path5750" class="s0" d="m1081 871.3v153h-42.4v-153z"/>
				</g>
			</g>
			<g id="Clip-Path: Clip-Path: path5752" clip-path="url(#cp46)">
				<g id="Clip-Path: path5752">
					<path id="path5752" class="s0" d="m1109.3 871.3h123.4v36h-81v23.1h73.3v33.5h-73.3v24.4h82.3v36h-124.7z"/>
				</g>
			</g>
			<g id="Clip-Path: Clip-Path: path5754" clip-path="url(#cp47)">
				<g id="Clip-Path: path5754">
					<path id="path5754" class="s0" d="m1297 1026.9q-10.3 0-18-2.6-9-1.3-15.4-5.2-6.5-3.8-11.6-7.7-5.1-5.1-9-10.3l27-25.7q6.4 6.5 11.6 10.3 5.1 3.9 12.8 3.9 7.7 0 12.9-5.2 3.8-6.4 3.8-16.7v-96.4h42.5v96.4q0 14.2-3.9 25.7-3.8 10.3-11.6 18-7.7 7.7-18 11.6-10.2 3.9-23.1 3.9z"/>
				</g>
			</g>
			<g id="Clip-Path: Clip-Path: path5756" clip-path="url(#cp48)">
				<g id="Clip-Path: path5756">
					<path id="path5756" fill-rule="evenodd" class="s0" d="m1456.4 1026.9q-18 0-33.4-6.5-15.4-6.4-25.7-16.7-11.6-10.3-18-24.4-5.2-15.4-5.2-30.9v-1.3q0-16.7 5.2-30.8 6.4-14.2 18-25.7 11.6-10.3 25.7-16.7 15.4-6.5 33.4-6.5 18 0 32.2 6.5 15.4 6.4 27 16.7 10.3 11.5 16.7 25.7 6.4 14.1 6.4 30.8 0 16.8-6.4 30.9-6.4 15.4-18 25.7-10.3 10.3-25.7 16.7-15.5 6.5-32.2 6.5zm0-38.6q9 0 15.5-2.6 7.7-3.8 12.8-9 5.2-5.1 7.7-12.8 2.6-7.8 2.6-15.5v-1.3q0-7.7-2.6-15.4-2.5-7.7-7.7-12.8-5.1-6.5-12.8-9-7.8-3.9-16.8-3.9-7.7 0-15.4 3.9-6.4 2.5-11.6 9-5.1 5.1-9 12.8-2.5 6.4-2.5 15.4 0 9 2.5 15.5 3.9 7.7 9 14.1 5.2 5.2 11.6 9 7.7 2.6 16.7 2.6z"/>
				</g>
			</g>
		</g>
		<g id="titulo">
			<g id="titulo inferior">
				<g id="Clip-Path: Clip-Path: path5790" clip-path="url(#cp49)">
					<g id="Clip-Path: path5790">
						<path id="path5790" fill-rule="evenodd" class="s0" d="m57.6 778.7h15.4c14.1 0 23.1 9 23.1 21.9 0 11.5-9 21.8-23.1 21.8h-15.4zm15.4 38.6c11.6 0 18-6.4 18-16.7 0-10.3-6.4-18-18-18h-10.3v34.7z"/>
					</g>
				</g>
				<g id="Clip-Path: Clip-Path: path5792" clip-path="url(#cp50)">
					<g id="Clip-Path: path5792">
						<path id="path5792" class="s0" d="m106.4 778.7h32.2v3.9h-27v15.4h24.4v3.9h-24.4v15.4h27v5.1h-32.2z"/>
					</g>
				</g>
				<g id="Clip-Path: Clip-Path: path5794" clip-path="url(#cp51)">
					<g id="Clip-Path: path5794">
						<path id="path5794" class="s0" d="m146.3 816l2.6-3.9c5.1 3.9 9 6.5 15.4 6.5 6.4 0 10.3-3.9 10.3-7.7 0-3.9-2.6-6.5-11.6-9-10.3-1.3-15.4-5.2-15.4-12.9 0-6.4 6.4-11.6 15.4-11.6 6.4 0 10.3 1.3 15.4 5.2l-3.8 3.8q-5.2-5.1-12.9-5.1c-5.1 0-9 3.8-9 7.7 0 3.9 2.6 6.4 12.9 9 9 1.3 14.1 5.1 14.1 11.6v1.3c0 6.4-6.4 11.5-15.4 11.5q-10.3 0-18-6.4z"/>
					</g>
				</g>
				<g id="Clip-Path: Clip-Path: path5796" clip-path="url(#cp52)">
					<g id="Clip-Path: path5796">
						<path id="path5796" class="s0" d="m187.4 800.6c0-12.9 9-23.2 21.9-23.2 9 0 12.8 2.6 18 6.5l-3.9 3.8c-3.8-3.8-7.7-6.4-14.1-6.4-9 0-16.7 9-16.7 19.3 0 10.3 7.7 18 16.7 18 6.4 0 10.3-2.6 14.1-6.5l3.9 2.6c-5.2 5.2-10.3 7.7-18 7.7-12.9 0-21.9-9-21.9-21.8z"/>
					</g>
				</g>
				<g id="Clip-Path: Clip-Path: path5798" clip-path="url(#cp53)">
					<g id="Clip-Path: path5798">
						<path id="path5798" class="s0" d="m236.3 778.7h30.8v3.9h-27v15.4h24.5v3.9h-24.5v15.4h28.3v5.1h-32.1z"/>
					</g>
				</g>
				<g id="Clip-Path: Clip-Path: path5800" clip-path="url(#cp54)">
					<g id="Clip-Path: path5800">
						<path id="path5800" class="s0" d="m277.4 778.7h5.2l28.3 34.7v-34.7h3.8v43.7h-3.8l-28.3-36v36h-5.2z"/>
					</g>
				</g>
				<g id="Clip-Path: Clip-Path: path5802" clip-path="url(#cp55)">
					<g id="Clip-Path: path5802">
						<path id="path5802" class="s0" d="m339.1 782.6h-14.1v-5.2h33.4v5.2h-14.1v39.8h-5.2z"/>
					</g>
				</g>
				<g id="Clip-Path: Clip-Path: path5804" clip-path="url(#cp56)">
					<g id="Clip-Path: path5804">
						<path id="path5804" fill-rule="evenodd" class="s0" d="m368.7 777.4h18q9 1.3 12.9 5.2 3.8 3.8 3.8 9c0 6.4-5.1 11.5-11.5 12.8l12.8 18h-6.4l-12.9-18h-11.5v18h-5.2zm18 21.9c6.4 0 11.6-2.6 11.6-9 0-5.2-3.9-9-11.6-9h-12.8v18z"/>
					</g>
				</g>
				<g id="Clip-Path: Clip-Path: path5806" clip-path="url(#cp57)">
					<g id="Clip-Path: path5806">
						<path id="path5806" fill-rule="evenodd" class="s0" d="m430.4 777.4h3.9l20.6 45h-5.2l-5.1-11.5h-24.5l-5.1 11.5h-5.1zm12.8 28.3l-10.3-23.1-10.3 23.1z"/>
					</g>
				</g>
				<g id="Clip-Path: Clip-Path: path5808" clip-path="url(#cp58)">
					<g id="Clip-Path: path5808">
						<path id="path5808" class="s0" d="m463.9 778.7h5.1v38.6h24.4v5.1h-29.5z"/>
					</g>
				</g>
				<g id="Clip-Path: Clip-Path: path5810" clip-path="url(#cp59)">
					<g id="Clip-Path: path5810">
						<path id="path5810" class="s0" d="m502.4 778.7h5.2v43.7h-5.2z"/>
					</g>
				</g>
				<g id="Clip-Path: Clip-Path: path5812" clip-path="url(#cp60)">
					<g id="Clip-Path: path5812">
						<path id="path5812" class="s0" d="m519.1 818.6l28.3-36h-28.3v-3.9h34.8v2.6l-28.3 36h28.3v5.1h-34.8z"/>
					</g>
				</g>
				<g id="Clip-Path: Clip-Path: path5814" clip-path="url(#cp61)">
					<g id="Clip-Path: path5814">
						<path id="path5814" fill-rule="evenodd" class="s0" d="m580.9 777.4h3.8l20.6 45h-5.2l-5.1-11.5h-24.4l-5.2 11.5h-5.1zm12.8 28.3l-10.2-23.1-10.3 23.1z"/>
					</g>
				</g>
				<g id="Clip-Path: Clip-Path: path5816" clip-path="url(#cp62)">
					<g id="Clip-Path: path5816">
						<path id="path5816" fill-rule="evenodd" class="s0" d="m614.3 778.7h15.4c12.9 0 23.2 9 23.2 21.9 0 11.5-10.3 21.8-23.2 21.8h-15.4zm15.4 38.6c10.3 0 18-6.4 18-16.7 0-10.3-7.7-18-18-18h-10.3v34.7z"/>
					</g>
				</g>
				<g id="Clip-Path: Clip-Path: path5818" clip-path="url(#cp63)">
					<g id="Clip-Path: path5818">
						<path id="path5818" fill-rule="evenodd" class="s0" d="m683.1 822.4c-12.5 0-22.5-10-22.5-22.5 0-12.4 10-22.5 22.5-22.5 12.4 0 22.5 10.1 22.5 22.5 0 12.5-10.1 22.5-22.5 22.5zm17.3-22.5c0-10.3-7.7-18.6-17.3-18.6-9.6 0-17.4 8.3-17.4 18.6 0 10.3 7.8 18.7 17.4 18.7 9.6 0 17.3-8.4 17.3-18.7z"/>
					</g>
				</g>
				<g id="Clip-Path: Clip-Path: path5820" clip-path="url(#cp64)">
					<g id="Clip-Path: path5820">
						<path id="path5820" class="s0" d="m735.1 778.7h5.2l16.7 23.2 15.4-23.2h5.2v43.7h-5.2v-36l-15.4 23.2h-1.3l-15.4-23.2v36h-5.2z"/>
					</g>
				</g>
				<g id="Clip-Path: Clip-Path: path5822" clip-path="url(#cp65)">
					<g id="Clip-Path: path5822">
						<path id="path5822" class="s0" d="m789.1 803.1v-24.4h5.2v24.4c0 10.3 5.1 15.5 12.8 15.5 9 0 14.2-5.2 14.2-15.5v-24.4h5.1v24.4c0 12.9-7.7 19.3-19.3 19.3-10.2 0-18-6.4-18-19.3z"/>
					</g>
				</g>
				<g id="Clip-Path: Clip-Path: path5824" clip-path="url(#cp66)">
					<g id="Clip-Path: path5824">
						<path id="path5824" class="s0" d="m838 778.7h3.9l28.2 34.7v-34.7h5.2v43.7h-3.9l-28.3-36v36h-5.1z"/>
					</g>
				</g>
				<g id="Clip-Path: Clip-Path: path5826" clip-path="url(#cp67)">
					<g id="Clip-Path: path5826">
						<path id="path5826" class="s0" d="m888.1 778.7h5.2v43.7h-5.2z"/>
					</g>
				</g>
				<g id="Clip-Path: Clip-Path: path5828" clip-path="url(#cp68)">
					<g id="Clip-Path: path5828">
						<path id="path5828" class="s0" d="m903.6 800.6c0-12.9 9-23.2 21.8-23.2 9 0 12.9 2.6 18 6.5l-3.8 3.8c-3.9-3.8-7.7-6.4-14.2-6.4-9 0-16.7 9-16.7 19.3 0 10.3 7.7 18 16.7 18 6.5 0 10.3-2.6 14.2-6.5l3.8 2.6c-5.1 5.2-10.3 7.7-18 7.7-12.8 0-21.8-9-21.8-21.8z"/>
					</g>
				</g>
				<g id="Clip-Path: Clip-Path: path5830" clip-path="url(#cp69)">
					<g id="Clip-Path: path5830">
						<path id="path5830" class="s0" d="m952.4 778.7h5.2v43.7h-5.2z"/>
					</g>
				</g>
				<g id="Clip-Path: Clip-Path: path5832" clip-path="url(#cp70)">
					<g id="Clip-Path: path5832">
						<path id="path5832" fill-rule="evenodd" class="s0" d="m970.4 778.7h16.7c9 0 16.8 5.2 16.8 12.9 0 10.3-9 15.4-18 15.4h-10.3v15.4h-5.2zm15.5 23.2c7.7 0 12.8-3.9 12.8-9 0-6.5-5.1-10.3-12.8-10.3h-10.3v19.3z"/>
					</g>
				</g>
				<g id="Clip-Path: Clip-Path: path5834" clip-path="url(#cp71)">
					<g id="Clip-Path: path5834">
						<path id="path5834" fill-rule="evenodd" class="s0" d="m1024.4 777.4h3.9l20.6 45h-5.2l-5.1-11.5h-24.5l-5.1 11.5h-5.1zm12.8 28.3l-10.3-23.1-10.3 23.1z"/>
					</g>
				</g>
				<g id="Clip-Path: Clip-Path: path5836" clip-path="url(#cp72)">
					<g id="Clip-Path: path5836">
						<path id="path5836" class="s0" d="m1057.9 778.7h5.1v38.6h24.4v5.1h-29.5z"/>
					</g>
				</g>
				<g id="Clip-Path: Clip-Path: path5838" clip-path="url(#cp73)">
					<g id="Clip-Path: path5838">
						<path id="path5838" fill-rule="evenodd" class="s0" d="m1115.7 778.7h15.4c12.9 0 23.2 9 23.2 21.9 0 11.5-10.3 21.8-23.2 21.8h-15.4zm15.4 38.6c10.3 0 18-6.4 18-16.7 0-10.3-7.7-18-18-18h-10.2v34.7z"/>
					</g>
				</g>
				<g id="Clip-Path: Clip-Path: path5840" clip-path="url(#cp74)">
					<g id="Clip-Path: path5840">
						<path id="path5840" class="s0" d="m1164.6 778.7h32.1v3.9h-27v15.4h24.4v3.9h-24.4v15.4h27v5.1h-32.1z"/>
					</g>
				</g>
				<g id="Clip-Path: Clip-Path: path5842" clip-path="url(#cp75)">
					<g id="Clip-Path: path5842">
						<path id="path5842" class="s0" d="m1207 778.7h5.1v38.6h24.5v5.1h-29.6z"/>
					</g>
				</g>
				<g id="Clip-Path: Clip-Path: path5844" clip-path="url(#cp76)">
					<g id="Clip-Path: path5844">
						<path id="path5844" class="s0" d="m1262.3 800.6c0-12.9 9-23.2 23.1-23.2 7.7 0 11.6 2.6 16.7 6.5l-3.8 3.8c-3.9-3.8-7.7-6.4-14.2-6.4-9 0-16.7 9-16.7 19.3 0 10.3 7.7 18 16.7 18 6.5 0 10.3-2.6 15.5-6.5l2.5 2.6c-5.1 5.2-9 7.7-18 7.7-12.8 0-21.8-9-21.8-21.8z"/>
					</g>
				</g>
				<g id="Clip-Path: Clip-Path: path5846">
					<g id="Clip-Path: path5846">
						<path id="path5846" fill-rule="evenodd" class="s0" d="m1326.6 777.4h5.1l20.6 45h-5.2l-5.1-11.5h-24.4l-5.2 11.5h-5.1zm11.6 28.3l-9-23.1-10.3 23.1z"/>
					</g>
				</g>
				<g id="Clip-Path: Clip-Path: path5848" clip-path="url(#cp77)">
					<g id="Clip-Path: path5848">
						<path id="path5848" class="s0" d="m1360 778.7h5.1l28.3 34.7v-34.7h3.9v43.7h-3.9l-28.3-36v36h-5.1z"/>
					</g>
				</g>
				<g id="Clip-Path: Clip-Path: path5850" clip-path="url(#cp78)">
					<g id="Clip-Path: path5850">
						<path id="path5850" class="s0" d="m1421.7 782.6h-14.1v-5.2h34.7v5.2h-15.4v39.8h-5.2z"/>
					</g>
				</g>
				<g id="Clip-Path: Clip-Path: path5852" clip-path="url(#cp79)">
					<g id="Clip-Path: path5852">
						<path id="path5852" fill-rule="evenodd" class="s0" d="m1473.1 765.9l5.2 1.2-7.7 6.5h-3.9zm-4.5 57.8c-12.4 0-22.5-10.3-22.5-23.1 0-12.8 10.1-23.2 22.5-23.2 12.5 0 22.5 10.4 22.5 23.2 0 12.8-10 23.1-22.5 23.1zm17.4-23.1c0-10-7.8-18-17.4-18-9.6 0-17.3 8-17.3 18 0 9.9 7.7 18 17.3 18 9.6 0 17.4-8.1 17.4-18z"/>
					</g>
				</g>
				<g id="Clip-Path: Clip-Path: path5854" clip-path="url(#cp80)">
					<g id="Clip-Path: path5854">
						<path id="path5854" class="s0" d="m1501.4 778.7h5.2l27 34.7v-34.7h5.1v43.7h-3.8l-28.3-36v36h-5.2z"/>
					</g>
				</g>
			</g>
			<g id="titulo superior">
				<g id="Clip-Path: Clip-Path: path5758" clip-path="url(#cp81)">
					<g id="Clip-Path: path5758">
						<path id="path5758" class="s0" d="m417.3 724.7c0-11.6 9-23.1 21.8-23.1 7.8 0 11.6 2.5 16.8 6.4l-3.9 3.9c-2.6-3.9-6.4-5.2-12.9-5.2-10.2 0-16.7 7.7-16.7 18 0 10.3 6.5 18 16.7 18 5.2 0 10.3-1.3 12.9-3.8v-11.6h-12.9v-3.9h18v16.7c-3.8 3.9-10.2 7.8-18 7.8-14.1 0-21.8-10.3-21.8-23.2z"/>
					</g>
				</g>
				<g id="Clip-Path: Clip-Path: path5760" clip-path="url(#cp82)">
					<g id="Clip-Path: path5760">
						<path id="path5760" fill-rule="evenodd" class="s0" d="m488.6 747.9c-12.4 0-22.5-10.4-22.5-23.2 0-12.8 10.1-23.1 22.5-23.1 12.5 0 22.5 10.3 22.5 23.1 0 12.8-10 23.2-22.5 23.2zm17.4-23.2c0-9.9-7.8-18-17.4-18-9.6 0-17.3 8.1-17.3 18 0 10 7.7 18 17.3 18 9.6 0 17.4-8 17.4-18z"/>
					</g>
				</g>
				<g id="Clip-Path: Clip-Path: path5762" clip-path="url(#cp83)">
					<g id="Clip-Path: path5762">
						<path id="path5762" fill-rule="evenodd" class="s0" d="m521.4 702.9h19.3q7.7 0 11.6 3.8 2.6 2.6 2.6 6.4c0 6.5-3.9 9-7.8 10.3 6.5 2.6 10.3 5.2 10.3 11.6 0 7.7-6.4 11.6-16.7 11.6h-19.3zm18 19.3c6.5 0 10.3-2.6 10.3-7.8 0-3.8-3.8-6.4-10.3-6.4h-12.8v14.2zm1.3 20.5q11.5 0 11.5-7.7 0-7.7-11.5-7.7h-14.2v15.4z"/>
					</g>
				</g>
				<g id="Clip-Path: Clip-Path: path5764" clip-path="url(#cp84)">
					<g id="Clip-Path: path5764">
						<path id="path5764" class="s0" d="m567.7 702.9h5.2v43.7h-5.2z"/>
					</g>
				</g>
				<g id="Clip-Path: Clip-Path: path5766" clip-path="url(#cp85)">
					<g id="Clip-Path: path5766">
						<path id="path5766" class="s0" d="m585.7 702.9h30.9v3.8h-25.7v15.4h23.1v5.2h-23.1v15.4h27v3.9h-32.2z"/>
					</g>
				</g>
				<g id="Clip-Path: Clip-Path: path5768" clip-path="url(#cp86)">
					<g id="Clip-Path: path5768">
						<path id="path5768" fill-rule="evenodd" class="s0" d="m626.9 702.9h19.2q9 0 12.9 3.8 2.6 3.9 3.9 9c0 7.7-5.2 11.6-12.9 12.9l14.1 18h-6.4l-12.8-16.7h-12.9v16.7h-5.1zm19.2 23.1c6.5 0 11.6-3.8 11.6-9v-1.3c0-5.1-5.1-7.7-11.6-7.7h-14.1v18z"/>
					</g>
				</g>
				<g id="Clip-Path: Clip-Path: path5770" clip-path="url(#cp87)">
					<g id="Clip-Path: path5770">
						<path id="path5770" class="s0" d="m673.1 702.9h3.9l28.3 34.7v-34.7h5.1v43.7h-3.8l-28.3-36v36h-5.2z"/>
					</g>
				</g>
				<g id="Clip-Path: Clip-Path: path5772" clip-path="url(#cp88)">
					<g id="Clip-Path: path5772">
						<path id="path5772" fill-rule="evenodd" class="s0" d="m743.2 747.9c-12.4 0-22.5-10.4-22.5-23.2 0-12.8 10.1-23.1 22.5-23.1 12.5 0 22.5 10.3 22.5 23.1 0 12.8-10 23.2-22.5 23.2zm17.4-23.2c0-9.9-7.8-18-17.4-18-9.6 0-17.3 8.1-17.3 18 0 10 7.7 18 17.3 18 9.6 0 17.4-8 17.4-18z"/>
					</g>
				</g>
				<g id="Clip-Path: Clip-Path: path5774" clip-path="url(#cp89)">
					<g id="Clip-Path: path5774">
						<path id="path5774" fill-rule="evenodd" class="s0" d="m810.7 702.9h5.2l20.5 43.7h-6.4l-5.1-11.6h-23.2l-5.1 11.6h-5.2zm11.6 28.3l-10.3-21.9-9 21.9z"/>
					</g>
				</g>
				<g id="Clip-Path: Clip-Path: path5776" clip-path="url(#cp90)">
					<g id="Clip-Path: path5776">
						<path id="path5776" class="s0" d="m842.9 728.6v-25.7h3.8v24.4c0 10.3 5.2 15.4 14.2 15.4 7.7 0 12.8-5.1 12.8-14.1v-25.7h5.2v24.4c0 12.8-7.8 20.6-18 20.6-11.6 0-18-7.8-18-19.3z"/>
					</g>
				</g>
				<g id="Clip-Path: Clip-Path: path5778" clip-path="url(#cp91)">
					<g id="Clip-Path: path5778">
						<path id="path5778" class="s0" d="m902 706.7h-14.1v-3.8h34.7v3.8h-15.5v39.9h-5.1z"/>
					</g>
				</g>
				<g id="Clip-Path: Clip-Path: path5780" clip-path="url(#cp92)">
					<g id="Clip-Path: path5780">
						<path id="path5780" fill-rule="evenodd" class="s0" d="m953.4 690l5.2 2.6-7.7 5.1h-3.9zm-4.5 57.9c-12.4 0-22.5-10.1-22.5-22.5 0-12.5 10.1-22.5 22.5-22.5 12.4 0 22.5 10 22.5 22.5 0 12.4-10.1 22.5-22.5 22.5zm17.4-23.2c0-9.9-7.8-18-17.4-18-9.6 0-17.4 8.1-17.4 18 0 10 7.8 18 17.4 18 9.6 0 17.4-8 17.4-18z"/>
					</g>
				</g>
				<g id="Clip-Path: Clip-Path: path5782" clip-path="url(#cp93)">
					<g id="Clip-Path: path5782">
						<path id="path5782" class="s0" d="m981.7 702.9h5.2l27 34.7v-34.7h5.1v43.7h-3.9l-28.2-36v36h-5.2z"/>
					</g>
				</g>
				<g id="Clip-Path: Clip-Path: path5784" clip-path="url(#cp94)">
					<g id="Clip-Path: path5784">
						<path id="path5784" fill-rule="evenodd" class="s0" d="m1051.8 747.9c-12.5 0-22.5-10.4-22.5-23.2 0-12.8 10-23.1 22.5-23.1 12.4 0 22.5 10.3 22.5 23.1 0 12.8-10.1 23.2-22.5 23.2zm17.3-23.2c0-9.9-7.7-18-17.3-18-9.6 0-17.4 8.1-17.4 18 0 10 7.8 18 17.4 18 9.6 0 17.3-8 17.3-18z"/>
					</g>
				</g>
				<g id="Clip-Path: Clip-Path: path5786" clip-path="url(#cp95)">
					<g id="Clip-Path: path5786">
						<path id="path5786" class="s0" d="m1084.6 702.9h5.1l16.7 24.4 15.5-24.4h5.1v43.7h-5.1v-36l-15.5 24.4-16.7-24.4v36h-5.1z"/>
					</g>
				</g>
				<g id="Clip-Path: Clip-Path: path5788" clip-path="url(#cp96)">
					<g id="Clip-Path: path5788">
						<path id="path5788" fill-rule="evenodd" class="s0" d="m1159.8 747.9c-12.5 0-22.5-10.4-22.5-23.2 0-12.8 10-23.1 22.5-23.1 12.4 0 22.5 10.3 22.5 23.1 0 12.8-10.1 23.2-22.5 23.2zm17.3-23.2c0-9.9-7.7-18-17.3-18-9.6 0-17.4 8.1-17.4 18 0 10 7.8 18 17.4 18 9.6 0 17.3-8 17.3-18z"/>
					</g>
				</g>
			</g>
		</g>
	</g>
</svg>